<svg width="130" height="130" viewBox="0 0 130 130" fill="none" xmlns="http://www.w3.org/2000/svg">
<circle cx="65" cy="65" r="30" fill="#ADB295"/>
<path d="M64.9988 55.0228C64.9731 55.0228 64.9557 55.0157 64.9467 55.0023C64.9376 54.9897 64.9323 54.9739 64.9301 54.955C64.7844 53.6461 64.1827 52.6692 63.1259 52.0251C62.682 51.7546 62.1846 51.5946 61.6328 51.5449C61.6146 51.5433 61.6011 51.5331 61.5935 51.5157L61.5844 51.4921C61.5694 51.4534 61.595 51.4101 61.6358 51.4077C62.1333 51.3754 62.5967 51.2382 63.0263 50.9977C64.1465 50.3693 64.7806 49.3901 64.9293 48.0607C64.9323 48.0339 64.9459 48.0158 64.9701 48.0063C64.9807 48.0024 64.992 48 65.0041 48C65.0169 48 65.0282 48.0024 65.0388 48.0063C65.0629 48.0158 65.0765 48.0339 65.0795 48.0607C65.226 49.3908 65.8586 50.3709 66.9773 51.0009C67.4068 51.2429 67.8703 51.3801 68.3678 51.4132C68.4078 51.4156 68.4342 51.459 68.4184 51.4984L68.4093 51.5212C68.4018 51.5394 68.3889 51.5488 68.3701 51.5504C67.8182 51.5993 67.3208 51.7586 66.8761 52.0282C65.8186 52.6708 65.2154 53.6461 65.0675 54.955C65.0652 54.9739 65.0599 54.9897 65.0508 55.0023C65.0418 55.0157 65.0244 55.0228 64.9988 55.0228Z" fill="white"/>
<path d="M58.3281 53.0977C58.3349 53.0977 58.3417 53.0992 58.3478 53.1024C58.3568 53.1071 58.3621 53.1142 58.3636 53.1252C58.5108 54.1652 59.2944 55.0317 60.327 55.1405C60.3572 55.1437 60.3716 55.1603 60.3716 55.1886C60.3716 55.217 60.3565 55.2328 60.327 55.2359C59.2936 55.34 58.5063 56.2026 58.3553 57.2418C58.3538 57.2528 58.3478 57.2607 58.3387 57.2654C58.3327 57.2686 58.3266 57.2702 58.3198 57.2702C58.313 57.2702 58.3062 57.2686 58.3002 57.2654C58.2912 57.2607 58.2859 57.2528 58.2844 57.2418C58.1372 56.2018 57.3536 55.3353 56.3209 55.2265C56.2915 55.2233 56.2764 55.2076 56.2764 55.1792C56.2764 55.1508 56.2915 55.135 56.3209 55.1319C57.3543 55.0278 58.1417 54.1644 58.2934 53.1252C58.2949 53.1142 58.3002 53.1063 58.3093 53.1024C58.3153 53.0992 58.3213 53.0977 58.3281 53.0977Z" fill="white"/>
<path d="M71.7412 53.0957C71.7571 53.0957 71.7662 53.1028 71.7684 53.1178C71.8741 53.9133 72.278 54.511 72.9808 54.9123C73.2306 55.055 73.479 55.1315 73.7251 55.141C73.7319 55.141 73.7379 55.1441 73.7417 55.1496L73.7628 55.178C73.7832 55.2056 73.7666 55.245 73.7334 55.2482C72.7082 55.3428 71.9768 56.203 71.782 57.2099C71.7752 57.2477 71.7609 57.2666 71.7397 57.2666C71.7186 57.2666 71.7043 57.2477 71.6967 57.2099C71.5035 56.203 70.772 55.342 69.7469 55.2466C69.7144 55.2435 69.6978 55.204 69.7174 55.1764L69.7385 55.148C69.7423 55.1425 69.7491 55.1394 69.7552 55.1394C70.0012 55.1307 70.2496 55.0542 70.5002 54.9115C71.203 54.511 71.6076 53.9133 71.7133 53.1178C71.7156 53.1028 71.7246 53.0957 71.7412 53.0957Z" fill="white"/>
<path d="M68.0181 60.3137C68.2133 62.0489 67.0206 63.6218 65.3532 63.8265C63.6863 64.0311 62.1765 62.79 61.9814 61.0544C61.7862 59.3192 62.9789 57.7463 64.6463 57.5416C66.3132 57.3371 67.823 58.5781 68.0181 60.3137Z" fill="white"/>
<path d="M65.0029 68.0779C65.1886 68.0858 65.3441 68.0077 65.4694 67.8437C66.5904 66.3764 67.8563 65.0912 69.2672 63.9874C71.7666 62.032 74.5702 60.7571 77.678 60.1626C77.7241 60.1539 77.7535 60.1507 77.7671 60.1531C77.8494 60.1681 77.8524 60.1941 77.7769 60.2304C73.5353 62.274 69.8854 65.6896 67.7552 70.034C67.303 70.9565 66.8855 72.047 66.5036 73.3061C66.0665 74.7467 65.7329 76.4781 65.5147 78.1118C65.3667 79.2212 65.2022 80.4693 65.0218 81.8554C65.015 81.9114 65.0036 81.9492 64.9893 81.9689C64.9561 82.0147 64.9364 82.0099 64.9297 81.9547C64.904 81.7363 64.784 80.6987 64.5703 78.8419C64.3869 77.2461 64.1068 75.681 63.7301 74.1474C63.0236 71.268 61.7675 68.696 59.9626 66.4324C59.3549 65.6699 58.6989 64.9288 58.0067 64.2633C56.2863 62.6099 54.3432 61.2585 52.1775 60.2083C52.1699 60.2044 52.1662 60.1949 52.1699 60.187C52.1828 60.1594 52.2145 60.1499 52.2635 60.1578C53.0282 60.2793 53.8224 60.4724 54.6452 60.7374C58.5275 61.9886 61.8664 64.3974 64.4186 67.6718C64.5439 67.8319 64.7591 68.0676 65.0029 68.0779Z" fill="white"/>
<path d="M75.1847 68.6253C72.9616 69.394 71.0231 70.6177 69.3707 72.2963C69.185 72.4848 68.9426 72.7402 68.643 73.0635C68.5826 73.1282 68.5607 73.1163 68.578 73.028C69.7549 66.8804 74.7522 62.581 80.6259 61.9533C80.647 61.951 80.6659 61.9683 80.6651 61.9904C80.6629 62.1268 80.6568 62.2451 80.6485 62.3436C80.4832 64.2604 79.954 66.0856 79.061 67.8187C79.0406 67.8581 79.0021 67.8841 78.9599 67.8865C77.6192 67.9724 76.3608 68.2184 75.1847 68.6253Z" fill="#274543"/>
<path d="M54.8091 68.6197C53.633 68.2137 52.3754 67.9685 51.0347 67.8841C50.9924 67.881 50.9539 67.8557 50.9336 67.8163C50.0405 66.0841 49.5106 64.2604 49.3438 62.3436C49.3355 62.2451 49.3294 62.1276 49.3272 61.9904C49.3264 61.9683 49.3453 61.951 49.3664 61.9533C55.2386 62.5778 60.2367 66.8725 61.4166 73.0178C61.4332 73.1061 61.412 73.1179 61.3516 73.0532C61.0519 72.73 60.8089 72.4745 60.6232 72.2861C58.9708 70.6098 57.0322 69.3877 54.8091 68.6197Z" fill="#274543"/>
<path d="M54.072 72.3395C53.9119 72.1983 53.8923 72.2173 54.0131 72.3962C55.8225 75.0778 58.8549 76.635 62.0012 76.0894C62.0571 76.0799 62.0986 76.0862 62.1258 76.1083C62.156 76.1335 62.1847 76.1714 62.2111 76.2226C62.861 77.4692 63.3034 78.7812 63.5382 80.1578C63.5449 80.198 63.5185 80.2359 63.4793 80.2414C63.1917 80.2769 62.8973 80.2942 62.5961 80.2934C60.9308 80.2911 59.3063 80.0506 57.7218 79.572C56.4763 79.1951 55.2511 78.6109 54.1157 77.9336C50.9022 76.0176 48.3107 72.9971 47.0048 69.3544C46.9889 69.3094 47.0138 69.2598 47.0584 69.2479C48.3379 68.9105 49.6537 68.8277 51.0494 68.9065C55.2262 69.1415 59.1629 71.5108 61.546 75.0565C61.5641 75.0833 61.5483 75.1211 61.5173 75.1251C60.5609 75.2615 59.64 75.2118 58.7545 74.9761C57.022 74.514 55.4217 73.5324 54.072 72.3395Z" fill="#274543"/>
<path d="M76.0155 72.2238C75.9898 72.2309 75.9672 72.2443 75.9483 72.2632C75.3165 72.89 74.5404 73.4648 73.6187 73.9883C72.195 74.7973 70.6785 75.2522 69.0698 75.1899C68.8577 75.1813 68.6622 75.1584 68.4848 75.1206C68.4342 75.1103 68.4237 75.0827 68.4538 75.0386C70.4037 72.1859 73.0005 70.2936 76.245 69.3624C78.425 68.7372 80.7486 68.7435 82.9415 69.2363C82.9868 69.2465 83.0117 69.2962 82.9951 69.3412C80.3847 76.3403 73.5817 80.6997 66.4481 80.2463C66.4029 80.2439 66.3704 80.2006 66.3795 80.1541C66.6474 78.7364 67.1245 77.3866 67.8122 76.1045C67.8288 76.073 67.8628 76.0564 67.896 76.0628C71.142 76.6604 74.2294 75.0575 76.0344 72.2521C76.0517 72.2253 76.0457 72.2159 76.0155 72.2238Z" fill="#274543"/>
<path d="M65.5832 19.1158L65.6142 18.7282C65.6536 18.2365 65.7678 17.8053 65.9568 17.4346C66.1458 17.0638 66.3815 16.7388 66.6639 16.4594C66.9552 16.1724 67.2693 15.9165 67.606 15.6919C67.9433 15.4588 68.2749 15.2463 68.6006 15.0543C68.9353 14.8546 69.2405 14.6568 69.5162 14.4608C69.8002 14.2654 70.0307 14.0574 70.2077 13.8367C70.3847 13.616 70.4846 13.364 70.5073 13.0806C70.5273 12.8306 70.494 12.6182 70.4073 12.4435C70.3213 12.2605 70.1861 12.1154 70.0018 12.0084C69.8258 11.9021 69.6128 11.8389 69.3627 11.8189C69.0711 11.7955 68.816 11.838 68.5977 11.9464C68.38 12.0464 68.2086 12.1962 68.0836 12.3959C67.9676 12.5879 67.8948 12.817 67.8651 13.083L66.0525 12.9379C66.1262 12.3315 66.3179 11.8226 66.6276 11.4112C66.9379 10.9915 67.3441 10.6843 67.8462 10.4896C68.3489 10.2866 68.9253 10.2111 69.5753 10.2632C70.192 10.3125 70.7122 10.4674 71.1359 10.7278C71.5679 10.9888 71.8888 11.3291 72.0984 11.7485C72.3171 12.1602 72.4054 12.6286 72.3634 13.1537C72.3334 13.5287 72.2394 13.8651 72.0813 14.1628C71.924 14.4522 71.7228 14.7129 71.4778 14.9449C71.2411 15.1776 70.9766 15.3913 70.6842 15.586C70.3918 15.7806 70.0963 15.9625 69.7976 16.1315C69.4989 16.3005 69.2089 16.466 68.9275 16.628C68.6552 16.7824 68.4155 16.9477 68.2085 17.1241C68.0104 17.2928 67.8614 17.478 67.7614 17.6797L71.9742 18.0169L71.8461 19.6171L65.5832 19.1158Z" fill="white"/>
<path d="M76.0219 20.6714C75.4135 20.5195 74.9086 20.2814 74.507 19.957C74.1054 19.6327 73.8183 19.2465 73.6458 18.7984C73.4834 18.3442 73.4458 17.8565 73.5328 17.3353L75.3335 17.7849C75.3073 17.9938 75.3357 18.1905 75.4189 18.375C75.5021 18.5595 75.6299 18.7207 75.8023 18.8585C75.9747 18.9963 76.1866 19.0967 76.4381 19.1594C76.7463 19.2364 77.0221 19.2363 77.2654 19.1592C77.5168 19.0841 77.7267 18.9512 77.8949 18.7605C78.0712 18.5718 78.1918 18.3477 78.2566 18.0881C78.3315 17.788 78.3345 17.5172 78.2655 17.2759C78.1985 17.0265 78.0737 16.8187 77.8911 16.6525C77.7086 16.4863 77.4713 16.3667 77.1793 16.2938C76.8711 16.2168 76.5811 16.222 76.3094 16.3093C76.0458 16.3986 75.836 16.5487 75.6799 16.7597L73.9522 16.3283L75.6477 11.1415L81.3055 12.554L80.9167 14.1116L76.8406 13.0939L76.087 15.1809L76.1661 15.2265C76.3506 15.0743 76.6121 14.9759 76.9507 14.9311C77.2995 14.8803 77.6523 14.8995 78.0092 14.9886C78.431 15.0939 78.7961 15.254 79.1043 15.4688C79.4126 15.6837 79.653 15.9462 79.8255 16.2564C80.0081 16.5605 80.1217 16.8992 80.1665 17.2723C80.2112 17.6454 80.1809 18.0429 80.0756 18.4647C79.9237 19.0731 79.6532 19.57 79.264 19.9555C78.8748 20.3409 78.4014 20.5976 77.8438 20.7255C77.2944 20.8555 76.6871 20.8374 76.0219 20.6714Z" fill="white"/>
<path d="M83.389 21.3782L84.3041 19.3145L82.2635 18.4095L82.8481 17.0911L84.8887 17.996L85.8038 15.9323L87.168 16.5373L86.253 18.601L88.2936 19.506L87.709 20.8245L85.6684 19.9195L84.7533 21.9832L83.389 21.3782Z" fill="white"/>
<path d="M92.7822 28.6176L94.9084 25.8545L95.6743 19.3066L97.4533 20.6758L97.0017 23.3192L96.6863 25.0863L96.746 25.1322L98.3832 24.3824L100.842 23.284L102.611 24.6455L96.4589 27.0477L94.3327 29.8108L92.7822 28.6176Z" fill="white"/>
<path d="M98.3828 33.867C97.9018 33.3552 97.5959 32.8223 97.4652 32.2682C97.3402 31.7201 97.3777 31.1741 97.5779 30.6302C97.7781 30.0863 98.1279 29.5796 98.6274 29.11C99.1574 28.6117 99.703 28.2766 100.264 28.1047C100.831 27.9388 101.382 27.9322 101.915 28.0847C102.46 28.2376 102.959 28.5547 103.412 29.036C103.938 29.5964 104.246 30.1679 104.335 30.7503C104.429 31.3388 104.337 31.9126 104.06 32.4719C103.782 33.0312 103.343 33.5411 102.744 34.0017L99.6085 30.6663C99.3404 30.9183 99.1521 31.1757 99.0434 31.4385C98.9466 31.7017 98.9298 31.9585 98.993 32.2089C99.0562 32.4593 99.1909 32.6941 99.3971 32.9135C99.6376 33.1693 99.8841 33.3278 100.137 33.3888C100.389 33.4498 100.626 33.4276 100.848 33.3221L102.042 34.5922C101.674 34.847 101.276 34.9856 100.849 35.0079C100.429 35.0245 100.003 34.9374 99.5711 34.7466C99.1512 34.5562 98.7551 34.2629 98.3828 33.867ZM100.312 30.0049L100.328 29.7658L102.459 32.0321L102.21 32.0244C102.478 31.796 102.65 31.5648 102.729 31.3306C102.819 31.0968 102.835 30.8636 102.777 30.6311C102.725 30.4048 102.601 30.188 102.407 29.9809C102.212 29.7738 101.994 29.6339 101.754 29.5615C101.526 29.4893 101.286 29.4908 101.035 29.5659C100.796 29.6413 100.555 29.7876 100.312 30.0049Z" fill="white"/>
<path d="M102.594 39.0747C102.367 38.7338 102.223 38.3826 102.163 38.0208C102.109 37.6544 102.137 37.2892 102.246 36.9251C102.362 36.5563 102.563 36.1957 102.851 35.8431C103.143 35.4975 103.515 35.1739 103.967 34.8723C104.579 34.464 105.163 34.2099 105.72 34.1101C106.288 34.0125 106.797 34.0599 107.247 34.2522C107.704 34.44 108.083 34.7599 108.384 35.212C108.575 35.4972 108.701 35.7847 108.764 36.0745C108.833 36.3598 108.844 36.6392 108.795 36.9128C108.754 37.1818 108.654 37.4242 108.496 37.6399L108.552 37.7234L109.533 37.1596L110.5 38.6099L104.908 42.3403L103.941 40.89L104.848 40.1941L104.793 40.1106C104.405 40.2081 104.01 40.1653 103.607 39.9823C103.215 39.8015 102.877 39.499 102.594 39.0747ZM104.205 38.7994C104.39 39.0776 104.602 39.2677 104.841 39.3697C105.085 39.4786 105.341 39.5087 105.61 39.4599C105.879 39.4112 106.145 39.2986 106.41 39.1223L106.963 38.7534C107.234 38.5725 107.438 38.366 107.575 38.1341C107.723 37.9045 107.794 37.6563 107.787 37.3897C107.784 37.1299 107.702 36.8784 107.539 36.6349C107.345 36.3428 107.116 36.1434 106.854 36.0368C106.597 35.9372 106.31 35.9222 105.995 35.9918C105.687 36.0568 105.359 36.2053 105.011 36.4373C104.677 36.66 104.415 36.9001 104.225 37.1576C104.035 37.415 103.936 37.6818 103.93 37.9577C103.923 38.2337 104.014 38.5142 104.205 38.7994Z" fill="white"/>
<path d="M105.608 43.8148L111.666 40.9013L112.389 42.4046L111.45 42.9399L111.477 42.9964C111.934 42.9436 112.308 43.0279 112.6 43.2493C112.903 43.4746 113.147 43.7794 113.332 44.1636C113.365 44.2315 113.394 44.2917 113.419 44.3445C113.445 44.3972 113.47 44.45 113.495 44.5027L111.936 45.2528C111.917 45.2152 111.892 45.1624 111.86 45.0946C111.827 45.0268 111.792 44.9552 111.756 44.8799C111.579 44.5106 111.377 44.2364 111.152 44.0572C110.934 43.8743 110.693 43.7771 110.427 43.7655C110.162 43.754 109.877 43.8169 109.572 43.9543L106.407 45.4763L105.608 43.8148Z" fill="white"/>
<path d="M108.314 50.5727C108.171 50.1444 108.09 49.7438 108.072 49.371C108.061 48.9956 108.106 48.6545 108.206 48.3478C108.309 48.049 108.465 47.7898 108.674 47.5703C108.891 47.3482 109.152 47.1816 109.459 47.0705L110.034 48.7956C109.844 48.8855 109.701 48.9993 109.606 49.1368C109.519 49.2716 109.47 49.429 109.46 49.6088C109.46 49.7938 109.495 49.9935 109.567 50.2076C109.675 50.5328 109.815 50.7549 109.987 50.8738C110.162 51.0007 110.352 51.0298 110.558 50.961C110.725 50.9054 110.839 50.8234 110.899 50.715C110.968 50.604 110.996 50.4493 110.983 50.251C110.98 50.058 110.948 49.8041 110.887 49.4895C110.792 48.9131 110.755 48.4187 110.776 48.0062C110.797 47.5938 110.905 47.2579 111.101 46.9988C111.297 46.7396 111.601 46.5413 112.013 46.4037C112.425 46.2662 112.819 46.2582 113.195 46.3797C113.573 46.5092 113.913 46.7484 114.214 47.0974C114.523 47.4437 114.768 47.8865 114.948 48.4259C115.12 48.9414 115.186 49.4173 115.147 49.8536C115.118 50.2952 114.988 50.6733 114.758 50.988C114.539 51.3079 114.235 51.546 113.846 51.702L113.271 49.9769C113.445 49.9187 113.569 49.8288 113.643 49.7071C113.728 49.5908 113.774 49.452 113.782 49.2907C113.793 49.1373 113.768 48.9694 113.707 48.787C113.614 48.5094 113.481 48.3072 113.306 48.1803C113.142 48.0587 112.957 48.0323 112.751 48.1011C112.6 48.1513 112.492 48.2359 112.426 48.3549C112.37 48.4792 112.349 48.6537 112.362 48.8785C112.376 49.1032 112.414 49.3901 112.478 49.7391C112.581 50.2864 112.618 50.7544 112.589 51.143C112.56 51.5317 112.442 51.853 112.236 52.1069C112.038 52.3581 111.729 52.5538 111.308 52.694C110.872 52.8395 110.46 52.8449 110.071 52.7101C109.685 52.5832 109.342 52.3361 109.044 51.9686C108.745 51.6012 108.501 51.1359 108.314 50.5727Z" fill="white"/>
<path d="M110.308 57.7774L119.416 56.9766L119.998 63.5981L118.336 63.7442L117.889 58.6594L118.338 59.0354L111.729 59.6166L112.105 59.168L112.554 64.2779L110.893 64.424L110.308 57.7774ZM114.291 58.9758L115.853 58.8385L116.246 63.3111L114.685 63.4485L114.291 58.9758Z" fill="white"/>
<path d="M110.89 65.4076L114.117 68.2182L117.569 66.2023L117.388 68.3771L115.414 69.4085L115.152 69.5377L115.147 69.6002L115.384 69.771L117.16 71.1143L116.987 73.2015L113.96 70.7096L110.268 72.8818L110.449 70.707L112.676 69.4954L112.977 69.3568L112.983 69.2943L112.71 69.0954L110.718 67.4699L110.89 65.4076Z" fill="white"/>
<path d="M108.087 72.8608L116.62 75.0778L116.179 76.7773L115.059 76.551L115.033 76.6481C115.362 76.8803 115.593 77.2038 115.727 77.6188C115.859 78.0418 115.862 78.4961 115.736 78.9816C115.631 79.3863 115.459 79.7305 115.221 80.0142C114.983 80.298 114.688 80.5193 114.336 80.6783C113.992 80.8394 113.594 80.926 113.141 80.9381C112.695 80.9603 112.205 80.9021 111.671 80.7633C110.967 80.5804 110.389 80.3094 109.938 79.9504C109.494 79.6015 109.189 79.1941 109.025 78.7282C108.861 78.2623 108.848 77.7623 108.987 77.2282C109.071 76.9045 109.198 76.6177 109.366 76.3678C109.541 76.1281 109.746 75.9353 109.983 75.7894C110.219 75.6435 110.467 75.5566 110.724 75.5285L110.743 75.4557L107.624 74.6452L108.087 72.8608ZM110.608 76.9237C110.522 77.2555 110.526 77.5547 110.621 77.8212C110.724 78.0898 110.908 78.3146 111.172 78.4955C111.433 78.6845 111.759 78.8294 112.147 78.9304C112.544 79.0334 112.897 79.0691 113.208 79.0375C113.526 79.0079 113.791 78.9039 114.001 78.7254C114.22 78.5489 114.372 78.2948 114.458 77.963C114.54 77.6474 114.537 77.3614 114.448 77.1051C114.367 76.8508 114.219 76.6396 114.004 76.4713C113.788 76.303 113.527 76.1789 113.219 76.099L112.576 75.9319C112.261 75.8499 111.967 75.834 111.694 75.8842C111.43 75.9366 111.202 76.0501 111.01 76.2247C110.818 76.3994 110.684 76.6324 110.608 76.9237Z" fill="white"/>
<path d="M106.525 83.9607C106.814 83.3205 107.189 82.834 107.651 82.5013C108.109 82.1762 108.628 82.0022 109.207 81.9791C109.786 81.9561 110.388 82.0856 111.013 82.3676C111.676 82.6668 112.195 83.0428 112.568 83.4957C112.938 83.9563 113.155 84.4622 113.218 85.0135C113.285 85.5759 113.183 86.1581 112.911 86.7602C112.595 87.4614 112.184 87.9642 111.68 88.2686C111.173 88.5807 110.607 88.7155 109.984 88.6729C109.362 88.6303 108.723 88.42 108.068 88.0419L109.95 83.8693C109.615 83.718 109.305 83.6424 109.021 83.6424C108.741 83.6536 108.497 83.7363 108.29 83.8904C108.083 84.0446 107.917 84.2589 107.793 84.5333C107.649 84.8534 107.597 85.1417 107.637 85.3983C107.677 85.6549 107.788 85.8657 107.971 86.0306L107.254 87.6196C106.878 87.3763 106.597 87.0619 106.414 86.6763C106.238 86.2941 106.155 85.867 106.166 85.3951C106.182 84.9342 106.301 84.456 106.525 83.9607ZM110.831 84.2665L111.058 84.1901L109.779 87.0252L109.691 86.7929C110.004 86.9526 110.284 87.0238 110.53 87.0065C110.78 87.0003 111.002 86.926 111.195 86.7836C111.384 86.6488 111.537 86.4519 111.654 86.1928C111.771 85.9337 111.817 85.6792 111.792 85.4295C111.771 85.1908 111.678 84.97 111.513 84.767C111.352 84.5751 111.124 84.4082 110.831 84.2665Z" fill="white"/>
<path d="M104.745 87.7561L110.455 91.3033L109.575 92.7202L108.619 92.215L108.586 92.2683C108.876 92.6255 109.006 92.9868 108.976 93.352C108.949 93.7287 108.823 94.0982 108.598 94.4605C108.558 94.5244 108.523 94.5812 108.492 94.6309C108.461 94.6806 108.43 94.7303 108.399 94.7801L106.929 93.8668C106.951 93.8313 106.982 93.7816 107.022 93.7176C107.061 93.6537 107.103 93.5863 107.147 93.5152C107.363 93.1672 107.487 92.85 107.517 92.5637C107.554 92.2817 107.507 92.0257 107.374 91.7957C107.241 91.5656 107.035 91.3588 106.755 91.1752L103.773 89.3222L104.745 87.7561Z" fill="white"/>
<path d="M102.067 91.8545L107.441 95.8929L106.334 97.3668L100.96 93.3283L102.067 91.8545ZM107.523 97.0995C107.694 96.8722 107.894 96.7302 108.125 96.6736C108.356 96.617 108.578 96.669 108.792 96.8297C109.013 96.9955 109.128 97.1971 109.138 97.4346C109.147 97.672 109.067 97.9044 108.896 98.1317C108.72 98.3656 108.517 98.5109 108.286 98.5676C108.056 98.6242 107.83 98.5696 107.609 98.4039C107.395 98.2432 107.284 98.0441 107.274 97.8066C107.264 97.5691 107.347 97.3334 107.523 97.0995Z" fill="white"/>
<path d="M98.0318 96.4945C98.5139 95.9838 99.0276 95.6466 99.5729 95.4831C100.113 95.3256 100.66 95.3305 101.215 95.4979C101.769 95.6653 102.296 95.9843 102.795 96.4549C103.324 96.9543 103.691 97.479 103.896 98.0291C104.095 98.5852 104.134 99.1342 104.014 99.6759C103.894 100.229 103.607 100.746 103.154 101.227C102.626 101.786 102.074 102.127 101.498 102.25C100.916 102.379 100.338 102.322 99.7628 102.078C99.188 101.835 98.6529 101.427 98.1574 100.856L101.3 97.5271C101.032 97.2746 100.764 97.1019 100.495 97.0091C100.227 96.9281 99.9693 96.9266 99.7232 97.0047C99.477 97.0828 99.2507 97.2312 99.0441 97.4501C98.803 97.7055 98.6595 97.961 98.6137 98.2166C98.5678 98.4723 98.6042 98.7078 98.7227 98.9233L97.5261 100.191C97.2498 99.8381 97.0878 99.4494 97.0401 99.0249C96.9985 98.6062 97.06 98.1756 97.2247 97.7332C97.3897 97.3026 97.6588 96.8897 98.0318 96.4945ZM102.002 98.1901L102.241 98.192L100.106 100.454L100.099 100.206C100.343 100.459 100.584 100.617 100.823 100.682C101.061 100.757 101.295 100.76 101.524 100.688C101.747 100.622 101.955 100.486 102.151 100.28C102.346 100.073 102.472 99.8474 102.53 99.6032C102.589 99.3709 102.573 99.1318 102.483 98.886C102.394 98.652 102.233 98.42 102.002 98.1901Z" fill="white"/>
<path d="M95.1323 99.5872L99.1971 104.941L97.7888 106.011L96.9933 105.087L96.9333 105.133C97.0599 105.603 97.0357 106.042 96.8608 106.447C96.6911 106.86 96.4164 107.21 96.0368 107.498C95.7705 107.701 95.4913 107.844 95.1991 107.93C94.9054 108.027 94.6096 108.052 94.3117 108.005C94.0071 107.963 93.6995 107.835 93.3889 107.619C93.0767 107.415 92.7689 107.114 92.4655 106.714L90.0084 103.478L91.4767 102.363L93.6911 105.28C93.9186 105.579 94.1448 105.801 94.3697 105.945C94.588 106.095 94.8058 106.16 95.023 106.142C95.2454 106.131 95.4764 106.034 95.7161 105.852C95.9691 105.66 96.1367 105.438 96.2188 105.187C96.3009 104.936 96.3153 104.678 96.2619 104.414C96.2085 104.15 96.0959 103.905 95.924 103.679L93.664 100.702L95.1323 99.5872Z" fill="white"/>
<path d="M85.9415 105.579C86.3864 105.347 86.8272 105.207 87.2639 105.159C87.7045 105.118 88.1297 105.165 88.5396 105.3C88.942 105.439 89.3122 105.661 89.65 105.966C89.9805 106.275 90.2655 106.659 90.505 107.119C90.7483 107.586 90.8981 108.045 90.9542 108.497C91.0142 108.956 90.9839 109.386 90.8635 109.789C90.7395 110.202 90.5288 110.576 90.2314 110.91C89.938 111.251 89.5614 111.542 89.1016 111.781C88.5975 112.044 88.0986 112.181 87.6052 112.193C87.1083 112.216 86.6523 112.119 86.2374 111.902C85.8263 111.692 85.4937 111.37 85.2397 110.937L86.8302 110.108C86.9715 110.289 87.1326 110.417 87.3133 110.493C87.4867 110.572 87.6723 110.603 87.8702 110.584C88.0645 110.577 88.2581 110.524 88.4508 110.423C88.6659 110.311 88.8318 110.168 88.9485 109.994C89.0692 109.828 89.1445 109.638 89.1746 109.424C89.2086 109.218 89.1992 108.992 89.1465 108.746C89.0864 108.504 88.9868 108.249 88.8478 107.982C88.6431 107.589 88.4212 107.29 88.1822 107.084C87.9396 106.89 87.6872 106.777 87.4249 106.744C87.159 106.722 86.8963 106.779 86.6368 106.914C86.407 107.034 86.2298 107.173 86.1053 107.332C85.9772 107.503 85.9017 107.683 85.8787 107.874C85.8522 108.077 85.8741 108.273 85.9446 108.462L84.3541 109.291C84.1443 108.816 84.0729 108.344 84.1399 107.875C84.2069 107.407 84.3923 106.975 84.6961 106.581C85 106.187 85.4151 105.853 85.9415 105.579Z" fill="white"/>
<path d="M79.1576 108.405C79.8242 108.184 80.4363 108.131 80.994 108.246C81.5437 108.363 82.0231 108.627 82.4323 109.037C82.8414 109.448 83.1538 109.978 83.3696 110.629C83.5984 111.32 83.6728 111.956 83.5925 112.537C83.5043 113.121 83.2787 113.623 82.9159 114.043C82.5477 114.474 82.0501 114.793 81.4232 115.001C80.6931 115.243 80.0453 115.281 79.4798 115.116C78.9063 114.954 78.4243 114.63 78.0339 114.142C77.6434 113.655 77.3654 113.043 77.2001 112.305L81.5449 110.864C81.4292 110.515 81.275 110.236 81.0823 110.027C80.8843 109.828 80.6585 109.705 80.4048 109.657C80.151 109.609 79.8813 109.632 79.5956 109.727C79.2623 109.837 79.0149 109.994 78.8533 110.198C78.6917 110.401 78.612 110.625 78.6142 110.871L76.9596 111.42C76.8837 110.978 76.9253 110.559 77.0846 110.163C77.2465 109.774 77.5048 109.425 77.8596 109.113C78.2091 108.812 78.6418 108.576 79.1576 108.405ZM81.8488 111.781L82.0588 111.896L79.1067 112.875L79.2181 112.653C79.3127 112.992 79.4498 113.246 79.6293 113.415C79.8035 113.595 80.0082 113.708 80.2434 113.753C80.4707 113.801 80.7193 113.781 80.9891 113.691C81.2589 113.602 81.4772 113.463 81.6441 113.276C81.8057 113.099 81.9052 112.881 81.9426 112.622C81.9747 112.373 81.9435 112.093 81.8488 111.781Z" fill="white"/>
<path d="M72.0233 115.901L72.0977 116.486L72.0232 117.292L72.5648 116.679L73.0509 116.327L73.5064 116.926L73.0327 117.277L72.2962 117.649L73.1008 117.812L73.6472 118.033L73.3563 118.728L72.7974 118.508L72.1214 118.063L72.3953 118.825L72.4696 119.41L71.7108 119.506L71.6364 118.921L71.6984 118.117L71.1553 118.717L70.6692 119.07L70.2261 118.469L70.6873 118.119L71.4254 117.76L70.6193 117.584L70.0728 117.363L70.3637 116.669L70.9226 116.888L71.6003 117.346L71.3388 116.582L71.2644 115.998L72.0233 115.901Z" fill="white"/>
<path d="M64.9543 110.876L64.9279 111.264C64.8945 111.756 64.7855 112.189 64.601 112.562C64.4165 112.935 64.1847 113.263 63.9057 113.546C63.6178 113.836 63.3069 114.096 62.973 114.324C62.6384 114.562 62.3095 114.778 61.9861 114.974C61.6539 115.178 61.3511 115.379 61.0778 115.579C60.7961 115.777 60.5681 115.988 60.3938 116.211C60.2194 116.434 60.1226 116.687 60.1034 116.971C60.0864 117.221 60.1222 117.433 60.211 117.606C60.2992 117.788 60.4361 117.932 60.6217 118.037C60.799 118.141 61.0128 118.201 61.263 118.218C61.555 118.238 61.8094 118.193 62.0265 118.082C62.2429 117.979 62.4125 117.827 62.5351 117.626C62.6488 117.433 62.7188 117.203 62.7453 116.936L64.5595 117.059C64.4932 117.667 64.3076 118.178 64.0029 118.593C63.6976 119.016 63.2951 119.328 62.7955 119.529C62.2953 119.738 61.7198 119.821 61.0692 119.777C60.452 119.735 59.9299 119.586 59.5031 119.331C59.068 119.075 58.7431 118.739 58.5284 118.322C58.3048 117.913 58.2108 117.445 58.2465 116.92C58.272 116.544 58.3619 116.207 58.5164 115.907C58.6702 115.616 58.8682 115.353 59.1104 115.118C59.3443 114.883 59.6062 114.666 59.8962 114.467C60.1862 114.269 60.4795 114.084 60.7762 113.911C61.0728 113.739 61.3608 113.57 61.6402 113.404C61.9107 113.247 62.1484 113.078 62.3532 112.9C62.5492 112.729 62.696 112.542 62.7936 112.339L58.577 112.052L58.6858 110.451L64.9543 110.876Z" fill="white"/>
<path d="M54.4988 109.448C55.109 109.592 55.6168 109.824 56.0224 110.144C56.4279 110.463 56.7197 110.846 56.8977 111.292C57.0656 111.744 57.1093 112.231 57.0286 112.753L55.2225 112.326C55.2462 112.117 55.2154 111.92 55.1299 111.737C55.0444 111.553 54.9147 111.394 54.7406 111.258C54.5665 111.122 54.3534 111.025 54.1012 110.965C53.792 110.892 53.5163 110.895 53.2739 110.975C53.0234 111.053 52.8153 111.189 52.6494 111.382C52.4754 111.572 52.3575 111.798 52.2959 112.058C52.2247 112.359 52.2251 112.63 52.297 112.871C52.3671 113.119 52.4944 113.325 52.679 113.489C52.8636 113.653 53.1023 113.77 53.3952 113.839C53.7043 113.913 53.9942 113.904 54.2648 113.813C54.5273 113.721 54.7352 113.568 54.8887 113.355L56.6216 113.765L54.9899 118.973L49.3152 117.629L49.6848 116.067L53.7731 117.035L54.501 114.939L54.4214 114.894C54.2388 115.049 53.9785 115.15 53.6404 115.199C53.2923 115.254 52.9393 115.239 52.5813 115.155C52.1583 115.055 51.7913 114.899 51.4804 114.688C51.1695 114.477 50.9259 114.217 50.7497 113.909C50.5633 113.607 50.4455 113.27 50.3962 112.898C50.3469 112.525 50.3723 112.127 50.4724 111.704C50.6169 111.094 50.8813 110.594 51.2657 110.204C51.6501 109.813 52.1204 109.551 52.6763 109.416C53.2242 109.279 53.8316 109.29 54.4988 109.448Z" fill="white"/>
<path d="M47.1226 108.831L46.2328 110.905L48.2844 111.785L47.7159 113.111L45.6644 112.231L44.7746 114.306L43.4031 113.717L44.2928 111.643L42.2413 110.763L42.8098 109.437L44.8613 110.317L45.7511 108.242L47.1226 108.831Z" fill="white"/>
<path d="M37.6395 101.706L35.5468 104.494L34.8599 111.051L33.0645 109.703L33.4842 107.055L33.7783 105.284L33.7181 105.239L32.09 106.008L29.6442 107.136L27.8588 105.796L33.9821 103.32L36.0748 100.531L37.6395 101.706Z" fill="white"/>
<path d="M31.9756 96.5235C32.4627 97.0294 32.775 97.5586 32.9124 98.1112C33.044 98.6577 33.0129 99.2041 32.8193 99.7504C32.6257 100.297 32.282 100.808 31.7882 101.283C31.2642 101.788 30.7227 102.129 30.1635 102.308C29.5985 102.481 29.0484 102.494 28.5131 102.348C27.9659 102.201 27.4633 101.89 27.0052 101.415C26.4716 100.86 26.1572 100.293 26.0617 99.7114C25.9604 99.1241 26.0452 98.5492 26.316 97.9866C26.5868 97.424 27.0193 96.9089 27.6135 96.4411L30.7885 99.7386C31.0535 99.4834 31.2387 99.2238 31.3442 98.9597C31.4379 98.6954 31.4516 98.4384 31.3854 98.1888C31.3192 97.9392 31.1816 97.706 30.9729 97.4891C30.7293 97.2362 30.481 97.0807 30.2278 97.0227C29.9746 96.9647 29.7377 96.9898 29.5168 97.098L28.3077 95.8422C28.6733 95.583 29.0692 95.4397 29.4954 95.4123C29.9157 95.3907 30.3428 95.4726 30.7768 95.6582C31.1991 95.8436 31.5987 96.132 31.9756 96.5235ZM30.0929 100.408L30.0795 100.648L27.9223 98.4072L28.1705 98.4119C27.906 98.6434 27.736 98.8768 27.6606 99.1119C27.5734 99.3468 27.5601 99.5801 27.6208 99.8118C27.6757 100.038 27.8017 100.253 27.9988 100.458C28.196 100.662 28.4152 100.8 28.6563 100.869C28.8856 100.939 29.1251 100.934 29.3749 100.856C29.6129 100.778 29.8522 100.629 30.0929 100.408Z" fill="white"/>
<path d="M27.7021 91.3665C27.9336 91.7045 28.0816 92.054 28.1464 92.415C28.2042 92.7807 28.1809 93.1463 28.0764 93.5117C27.965 93.8818 27.7678 94.2449 27.4846 94.6009C27.1967 94.95 26.8286 95.278 26.3802 95.585C25.7731 96.0007 25.1919 96.2618 24.6367 96.3684C24.0698 96.4728 23.5603 96.4315 23.1081 96.2446C22.649 96.0624 22.266 95.7471 21.959 95.2987C21.7653 95.0158 21.6354 94.7298 21.5693 94.4407C21.4962 94.1564 21.4823 93.8771 21.5276 93.6029C21.566 93.3334 21.6628 93.0898 21.8178 92.8723L21.7611 92.7895L20.7873 93.365L19.8025 91.9266L25.349 88.129L26.3338 89.5674L25.4346 90.2743L25.4913 90.3571C25.8773 90.2549 26.2732 90.2929 26.6789 90.4711C27.0729 90.6472 27.414 90.9456 27.7021 91.3665ZM26.0952 91.6611C25.9063 91.3851 25.6918 91.1976 25.4517 91.0985C25.2069 90.9925 24.9504 90.9656 24.682 91.0176C24.4136 91.0696 24.1484 91.1853 23.8862 91.3648L23.3378 91.7403C23.0688 91.9245 22.8673 92.1334 22.7333 92.367C22.5878 92.5984 22.5201 92.8474 22.5303 93.1139C22.5359 93.3736 22.6213 93.6242 22.7866 93.8657C22.985 94.1554 23.2158 94.352 23.4791 94.4555C23.7377 94.552 24.0242 94.5635 24.3387 94.4901C24.6463 94.4213 24.9725 94.2689 25.3175 94.0327C25.6486 93.806 25.9077 93.5628 26.0946 93.303C26.2816 93.0433 26.3768 92.7754 26.3804 92.4994C26.3839 92.2234 26.2889 91.944 26.0952 91.6611Z" fill="white"/>
<path d="M24.6317 86.6654L18.6099 89.6524L17.8688 88.1581L18.8015 87.6114L18.7737 87.5552C18.3173 87.6136 17.9418 87.5338 17.6471 87.316C17.3413 87.0944 17.0936 86.7926 16.9041 86.4106C16.8707 86.3432 16.841 86.2833 16.815 86.2308C16.789 86.1784 16.763 86.126 16.737 86.0735L18.2874 85.3045C18.3059 85.3419 18.3319 85.3944 18.3654 85.4618C18.3988 85.5292 18.4341 85.6004 18.4712 85.6753C18.6533 86.0423 18.858 86.3141 19.0856 86.4905C19.3056 86.6707 19.5483 86.765 19.8137 86.7733C20.0792 86.7816 20.3636 86.7152 20.6669 86.5741L23.8126 85.0138L24.6317 86.6654Z" fill="white"/>
<path d="M21.8428 79.9368C21.9908 80.3633 22.0764 80.7629 22.0995 81.1354C22.1147 81.5107 22.074 81.8523 21.9773 82.1603C21.8779 82.4603 21.7251 82.7213 21.5189 82.9433C21.3049 83.1681 21.0452 83.3379 20.7399 83.4527L20.1437 81.7347C20.3329 81.6424 20.4743 81.527 20.5677 81.3883C20.6533 81.2524 20.7003 81.0945 20.7086 80.9146C20.7064 80.7295 20.6682 80.5304 20.5942 80.3171C20.4818 79.9933 20.3389 79.7729 20.1656 79.656C19.9896 79.5313 19.7989 79.5046 19.5935 79.5758C19.4277 79.6334 19.315 79.7168 19.2555 79.8259C19.1882 79.9378 19.1623 80.0928 19.178 80.2909C19.183 80.4839 19.2179 80.7373 19.2826 81.0512C19.3848 81.6264 19.4279 82.1203 19.4119 82.533C19.3958 82.9457 19.2916 83.2828 19.0991 83.5443C18.9067 83.8058 18.6051 84.0079 18.1944 84.1504C17.7837 84.293 17.3899 84.3058 17.013 84.1888C16.6334 84.0639 16.2907 83.8288 15.985 83.4836C15.6715 83.141 15.4215 82.7012 15.235 82.1641C15.0569 81.6507 14.9849 81.1756 15.0192 80.7389C15.0428 80.297 15.1677 79.9173 15.3938 79.5999C15.6093 79.2773 15.9104 79.0356 16.297 78.8748L16.8933 80.5928C16.7195 80.6531 16.5964 80.7445 16.5239 80.8671C16.4407 80.9844 16.3962 81.1238 16.3902 81.2852C16.3815 81.4386 16.4087 81.6062 16.4718 81.7879C16.5677 82.0644 16.7037 82.265 16.8798 82.3897C17.0452 82.5093 17.2306 82.5335 17.4359 82.4622C17.586 82.4101 17.6933 82.3242 17.7579 82.2044C17.8119 82.0794 17.8309 81.9047 17.8149 81.6801C17.799 81.4555 17.7571 81.1692 17.6893 80.821C17.5795 80.275 17.5367 79.8075 17.561 79.4185C17.5853 79.0295 17.699 78.7068 17.902 78.4504C18.0972 78.1968 18.4041 77.9974 18.8227 77.8521C19.2571 77.7013 19.6695 77.6909 20.0597 77.8209C20.4473 77.9431 20.7927 78.1861 21.0959 78.5499C21.3992 78.9137 21.6481 79.376 21.8428 79.9368Z" fill="white"/>
<path d="M19.7613 72.7594L10.6646 73.6699L10.0026 67.0559L11.6623 66.8897L12.1706 71.9688L11.7176 71.5982L18.3187 70.9375L17.9481 71.3905L17.4373 66.2865L19.0969 66.1204L19.7613 72.7594ZM15.7644 71.6091L14.2046 71.7653L13.7574 67.2976L15.3172 67.1415L15.7644 71.6091Z" fill="white"/>
<path d="M19.0883 65.1385L15.8277 62.367L12.4002 64.4244L12.5548 62.2476L14.5156 61.1925L14.7765 61.0601L14.7809 60.9976L14.5414 60.8297L12.7495 59.5079L12.8979 57.4187L15.9546 59.8739L19.6197 57.6574L19.4651 59.8342L17.2524 61.0726L16.9531 61.2148L16.9487 61.2773L17.2239 61.4729L19.2349 63.0743L19.0883 65.1385Z" fill="white"/>
<path d="M21.8003 57.654L13.2409 55.5418L13.6615 53.8371L14.7845 54.0496L14.8085 53.9522C14.4773 53.724 14.2421 53.4033 14.103 52.9901C13.9659 52.5687 13.9574 52.1145 14.0775 51.6274C14.1777 51.2215 14.3449 50.8753 14.5793 50.5886C14.8136 50.302 15.1059 50.077 15.4562 49.9137C15.7984 49.7484 16.1956 49.6569 16.6477 49.6393C17.0937 49.6116 17.5846 49.6638 18.1203 49.7961C18.8265 49.9703 19.4072 50.2342 19.8625 50.5877C20.3117 50.9311 20.6212 51.3347 20.7909 51.7985C20.9606 52.2624 20.9794 52.7622 20.8472 53.298C20.7671 53.6227 20.6442 53.911 20.4787 54.163C20.3071 54.4048 20.1039 54.6001 19.8692 54.7489C19.6344 54.8976 19.3883 54.9876 19.1309 55.0188L19.1129 55.0919L22.242 55.8641L21.8003 57.654ZM19.23 53.6223C19.3122 53.2895 19.3041 52.9904 19.206 52.7251C19.0997 52.4577 18.9135 52.2352 18.6473 52.0576C18.3832 51.8718 18.0563 51.7309 17.6667 51.6347C17.2689 51.5366 16.915 51.5052 16.6049 51.5406C16.2866 51.574 16.0233 51.6813 15.815 51.8624C15.5986 52.0415 15.4493 52.2975 15.3672 52.6303C15.2891 52.9469 15.2961 53.2328 15.3881 53.4881C15.472 53.7413 15.6227 53.9507 15.8402 54.1163C16.0576 54.282 16.3206 54.4028 16.629 54.4789L17.2743 54.6382C17.5909 54.7163 17.885 54.7286 18.1565 54.675C18.42 54.6195 18.6467 54.5032 18.8368 54.3262C19.0268 54.1492 19.1579 53.9146 19.23 53.6223Z" fill="white"/>
<path d="M23.2275 46.5329C22.9465 47.1766 22.577 47.6676 22.1191 48.0059C21.6646 48.3366 21.1479 48.517 20.5692 48.5471C19.9904 48.5773 19.3869 48.4551 18.7586 48.1808C18.092 47.8897 17.5692 47.5201 17.1902 47.0717C16.8146 46.6158 16.5918 46.1125 16.522 45.562C16.4479 45.0005 16.5429 44.417 16.8072 43.8117C17.115 43.1067 17.5191 42.5989 18.0196 42.2883C18.5235 41.9701 19.0871 41.8284 19.7104 41.8634C20.3337 41.8983 20.9751 42.1008 21.6346 42.4709L19.803 46.6662C20.1402 46.8134 20.4509 46.8852 20.7353 46.8817C21.0153 46.8671 21.258 46.7814 21.4632 46.6247C21.6685 46.468 21.8313 46.2517 21.9517 45.9759C22.0922 45.6541 22.1409 45.3651 22.0976 45.109C22.0543 44.8529 21.9404 44.6435 21.756 44.4809L22.4535 42.8832C22.8328 43.1218 23.1167 43.4328 23.3051 43.8162C23.4859 44.1962 23.5736 44.6222 23.5682 45.0942C23.5585 45.5553 23.4449 46.0349 23.2275 46.5329ZM18.9181 46.2798L18.6919 46.3589L19.9364 43.5084L20.027 43.7396C19.7119 43.5838 19.4313 43.516 19.1853 43.5363C18.9349 43.5456 18.7143 43.6226 18.5234 43.7673C18.3358 43.9044 18.1852 44.1032 18.0714 44.3637C17.9577 44.6242 17.9148 44.8792 17.9428 45.1286C17.9664 45.367 18.0621 45.5867 18.2298 45.7876C18.3932 45.9776 18.6226 46.1416 18.9181 46.2798Z" fill="white"/>
<path d="M24.9626 42.713L19.2104 39.2349L20.0733 37.8074L21.0352 38.3011L21.0677 38.2474C20.7735 37.8937 20.6392 37.534 20.6648 37.1685C20.6876 36.7914 20.8093 36.4204 21.0299 36.0555C21.0688 35.9911 21.1034 35.9339 21.1337 35.8838C21.164 35.8337 21.1943 35.7836 21.2245 35.7336L22.7055 36.629C22.6839 36.6648 22.6536 36.7149 22.6147 36.7793C22.5758 36.8437 22.5347 36.9117 22.4914 36.9832C22.2795 37.3338 22.1601 37.6525 22.1333 37.9392C22.0994 38.2215 22.1501 38.4769 22.2856 38.7054C22.421 38.9338 22.6297 39.1382 22.9115 39.3184L25.9164 41.1353L24.9626 42.713Z" fill="white"/>
<path d="M27.5897 38.585L22.1676 34.6117L23.2573 33.1245L28.6793 37.0978L27.5897 38.585ZM22.0714 33.4062C21.9034 33.6355 21.7044 33.7798 21.4743 33.8393C21.2442 33.8987 21.0212 33.8493 20.8054 33.6912C20.5829 33.5281 20.4653 33.3279 20.4526 33.0906C20.4399 32.8532 20.5176 32.6199 20.6856 32.3906C20.8585 32.1545 21.0601 32.0068 21.2902 31.9474C21.5203 31.888 21.7466 31.9398 21.9691 32.1029C22.1849 32.261 22.2992 32.4588 22.3119 32.6961C22.3245 32.9334 22.2444 33.1701 22.0714 33.4062Z" fill="white"/>
<path d="M31.5701 33.8958C31.0941 34.4123 30.5845 34.7556 30.0412 34.9257C29.5035 35.0896 28.9563 35.0912 28.3995 34.9305C27.8427 34.7698 27.3122 34.4572 26.8081 33.9925C26.2732 33.4996 25.8999 32.9793 25.6883 32.4317C25.4823 31.878 25.4362 31.3296 25.5501 30.7865C25.6636 30.2315 25.9441 29.7112 26.3917 29.2255C26.9129 28.6599 27.4608 28.312 28.0354 28.1821C28.6156 28.046 29.1945 28.0963 29.7722 28.3331C30.3498 28.5699 30.8898 28.9709 31.3922 29.5362L28.2901 32.9025C28.5606 33.1518 28.8308 33.3212 29.1007 33.4108C29.3702 33.4886 29.6275 33.4869 29.8727 33.4059C30.1179 33.3249 30.3425 33.1737 30.5464 32.9524C30.7844 32.6942 30.9248 32.4369 30.9676 32.1808C31.0104 31.9246 30.9712 31.6895 30.85 31.4755L32.0314 30.1936C32.3119 30.5431 32.4785 30.9297 32.5313 31.3536C32.578 31.7718 32.5216 32.2031 32.3622 32.6475C32.2024 33.0801 31.9383 33.4962 31.5701 33.8958ZM27.58 32.248L27.3404 32.2489L29.4481 29.9617L29.4583 30.2098C29.2114 29.9595 28.9683 29.8038 28.7292 29.7425C28.4895 29.6695 28.2558 29.6701 28.0281 29.7445C27.8061 29.8127 27.5987 29.9514 27.4061 30.1604C27.2135 30.3695 27.0896 30.5964 27.0345 30.8413C26.9789 31.0743 26.9976 31.3132 27.0904 31.5579C27.1827 31.7908 27.3459 32.0209 27.58 32.248Z" fill="white"/>
<path d="M34.4312 30.7688L30.3021 25.4642L31.6975 24.3779L32.5041 25.2917L32.5634 25.2455C32.4313 24.7762 32.4501 24.3377 32.6201 23.9299C32.7849 23.5155 33.0553 23.1619 33.4314 22.8691C33.6953 22.6637 33.9727 22.5166 34.2638 22.4277C34.5563 22.3271 34.8518 22.2984 35.1503 22.3415C35.4553 22.3795 35.7645 22.5044 36.0777 22.7162C36.3923 22.9163 36.7037 23.2143 37.0119 23.6101L39.5078 26.8167L38.0531 27.9491L35.8037 25.0593C35.5726 24.7624 35.3437 24.5433 35.1171 24.4018C34.897 24.2552 34.6785 24.1923 34.4614 24.2129C34.2393 24.2269 34.0094 24.3264 33.7719 24.5113C33.5212 24.7064 33.3563 24.9302 33.2772 25.1825C33.1982 25.4348 33.1869 25.6925 33.2435 25.9558C33.3 26.219 33.4156 26.4628 33.5902 26.6871L35.8859 29.6363L34.4312 30.7688Z" fill="white"/>
<path d="M43.5493 24.6679C43.1072 24.9051 42.6681 25.0505 42.2321 25.1042C41.792 25.1505 41.3663 25.1085 40.9548 24.9782C40.5507 24.844 40.1779 24.6265 39.8363 24.3258C39.5021 24.0212 39.2125 23.6405 38.9675 23.1837C38.7185 22.7195 38.5632 22.262 38.5016 21.8112C38.436 21.3529 38.4611 20.922 38.5766 20.5184C38.6956 20.1035 38.9017 19.7273 39.195 19.3896C39.4843 19.0447 39.8574 18.7496 40.3141 18.5046C40.8151 18.2358 41.3122 18.0924 41.8054 18.0745C42.3021 18.0452 42.7592 18.1368 43.1768 18.3493C43.5904 18.5543 43.9268 18.872 44.186 19.3022L42.6058 20.15C42.4622 19.9709 42.2996 19.8446 42.118 19.7713C41.9437 19.694 41.7577 19.6657 41.56 19.6863C41.3658 19.6957 41.1729 19.7517 40.9814 19.8545C40.7677 19.9691 40.6036 20.1141 40.4889 20.2895C40.3703 20.4575 40.2973 20.6485 40.2697 20.8625C40.2383 21.0692 40.2504 21.2951 40.3061 21.5404C40.3691 21.7818 40.4718 22.0351 40.6141 22.3003C40.8235 22.6908 41.049 22.9873 41.2905 23.1898C41.5354 23.3811 41.7892 23.4916 42.0519 23.5214C42.318 23.54 42.58 23.4801 42.8378 23.3417C43.0662 23.2192 43.2417 23.0776 43.3642 22.917C43.4902 22.745 43.5635 22.5633 43.5842 22.372C43.6083 22.1693 43.584 21.9736 43.5112 21.7849L45.0915 20.937C45.3071 21.4097 45.3842 21.8807 45.3229 22.35C45.2616 22.8194 45.0814 23.2529 44.7824 23.6505C44.4834 24.0482 44.0723 24.3873 43.5493 24.6679Z" fill="white"/>
<path d="M50.3004 21.7581C49.6366 21.9872 49.0251 22.0478 48.4661 21.94C47.915 21.8294 47.4324 21.5714 47.0183 21.1659C46.6042 20.7604 46.2854 20.2336 46.0618 19.5855C45.8245 18.8979 45.7425 18.2628 45.8157 17.6803C45.8968 17.0951 46.1162 16.5904 46.474 16.1662C46.8369 15.7314 47.3305 15.4063 47.9549 15.1908C48.682 14.9399 49.3293 14.8934 49.8968 15.0514C50.4721 15.2066 50.958 15.5254 51.3544 16.0078C51.7508 16.4901 52.0361 17.0993 52.2104 17.8352L47.8834 19.3284C48.0034 19.6761 48.161 19.9534 48.3562 20.1603C48.5565 20.3565 48.7839 20.477 49.0382 20.522C49.2925 20.5669 49.5619 20.5403 49.8464 20.4421C50.1783 20.3275 50.4238 20.1676 50.583 19.9623C50.7421 19.7571 50.819 19.5315 50.8138 19.2856L52.4616 18.717C52.5429 19.1577 52.5064 19.5772 52.3519 19.9755C52.1948 20.3658 51.9407 20.7188 51.5897 21.0345C51.2439 21.3396 50.8142 21.5808 50.3004 21.7581ZM47.5684 18.4155L47.357 18.3027L50.2971 17.2881L50.1884 17.5114C50.0896 17.174 49.9495 16.9216 49.7679 16.7543C49.5916 16.5763 49.3855 16.4661 49.1497 16.4236C48.9219 16.3784 48.6736 16.4022 48.4049 16.4949C48.1362 16.5877 47.9195 16.7288 47.7549 16.9182C47.5955 17.0971 47.4987 17.3162 47.4644 17.5757C47.4353 17.8246 47.47 18.1045 47.5684 18.4155Z" fill="white"/>
<path d="M57.3453 14.1749L57.2639 13.5911L57.3287 12.7843L56.7945 13.4033L56.3127 13.7618L55.85 13.1678L56.3194 12.8111L57.0514 12.4304L56.2449 12.277L55.6959 12.0623L55.9784 11.3644L56.5399 11.5774L57.2213 12.0142L56.9382 11.2559L56.8568 10.6721L57.6145 10.5664L57.6959 11.1502L57.6436 11.9553L58.1794 11.3487L58.6612 10.9902L59.1115 11.5859L58.6545 11.9409L57.9208 12.3092L58.729 12.475L59.2781 12.6897L58.9956 13.3876L58.4341 13.1747L57.751 12.7254L58.0216 13.4854L58.103 14.0693L57.3453 14.1749Z" fill="white"/>
</svg>
