<svg width="24" height="24" viewBox="0 0 24 24" fill="none" xmlns="http://www.w3.org/2000/svg">
<g clip-path="url(#clip0_295_1802)">
<path d="M21.4284 0.856934H2.57122C1.62445 0.856934 0.856934 1.62445 0.856934 2.57122V7.71408C0.856934 8.66085 1.62445 9.42836 2.57122 9.42836H21.4284C22.3751 9.42836 23.1426 8.66085 23.1426 7.71408V2.57122C23.1426 1.62445 22.3751 0.856934 21.4284 0.856934Z" stroke="white" stroke-width="1.5" stroke-linecap="round" stroke-linejoin="round"/>
<path d="M10.2856 5.14258H13.7142" stroke="white" stroke-width="1.5" stroke-linecap="round" stroke-linejoin="round"/>
<path d="M2.57122 9.42822C2.11656 9.42822 1.68053 9.60883 1.35904 9.93033C1.03755 10.2518 0.856934 10.6879 0.856934 11.1425V16.2854C0.856934 16.74 1.03755 17.1761 1.35904 17.4975C1.68053 17.819 2.11656 17.9997 2.57122 17.9997H21.4284C21.883 17.9997 22.3191 17.819 22.6405 17.4975C22.962 17.1761 23.1426 16.74 23.1426 16.2854V11.1425C23.1426 10.6879 22.962 10.2518 22.6405 9.93033C22.3191 9.60883 21.883 9.42822 21.4284 9.42822" stroke="white" stroke-width="1.5" stroke-linecap="round" stroke-linejoin="round"/>
<path d="M5.57115 5.57101C5.33446 5.57101 5.14258 5.37913 5.14258 5.14244C5.14258 4.90575 5.33446 4.71387 5.57115 4.71387" stroke="white" stroke-width="1.5" stroke-linecap="round" stroke-linejoin="round"/>
<path d="M5.57129 5.57101C5.80798 5.57101 5.99986 5.37913 5.99986 5.14244C5.99986 4.90575 5.80798 4.71387 5.57129 4.71387" stroke="white" stroke-width="1.5" stroke-linecap="round" stroke-linejoin="round"/>
<path d="M5.57115 14.1428C5.33446 14.1428 5.14258 13.9509 5.14258 13.7142C5.14258 13.4775 5.33446 13.2856 5.57115 13.2856" stroke="white" stroke-width="1.5" stroke-linecap="round" stroke-linejoin="round"/>
<path d="M5.57129 14.1428C5.80798 14.1428 5.99986 13.9509 5.99986 13.7142C5.99986 13.4775 5.80798 13.2856 5.57129 13.2856" stroke="white" stroke-width="1.5" stroke-linecap="round" stroke-linejoin="round"/>
<path d="M10.2856 13.7139H13.7142" stroke="white" stroke-width="1.5" stroke-linecap="round" stroke-linejoin="round"/>
<path d="M12 18V23.1429" stroke="white" stroke-width="1.5" stroke-linecap="round" stroke-linejoin="round"/>
<path d="M3.42822 23.1426H20.5711" stroke="white" stroke-width="1.5" stroke-linecap="round" stroke-linejoin="round"/>
</g>
<defs>
<clipPath id="clip0_295_1802">
<rect width="24" height="24" fill="white"/>
</clipPath>
</defs>
</svg>
