<svg width="28" height="28" viewBox="0 0 28 28" fill="none" xmlns="http://www.w3.org/2000/svg">
<path d="M9 26C13.4183 26 17 22.4183 17 18C17 13.5817 13.4183 10 9 10C4.58172 10 1 13.5817 1 18C1 22.4183 4.58172 26 9 26Z" stroke="white" stroke-width="1.5" stroke-linecap="round" stroke-linejoin="round"/>
<path d="M19 26C23.4183 26 27 22.4183 27 18C27 13.5817 23.4183 10 19 10C14.5817 10 11 13.5817 11 18C11 22.4183 14.5817 26 19 26Z" stroke="white" stroke-width="1.5" stroke-linecap="round" stroke-linejoin="round"/>
<path d="M14 18C18.4183 18 22 14.4183 22 10C22 5.58172 18.4183 2 14 2C9.58172 2 6 5.58172 6 10C6 14.4183 9.58172 18 14 18Z" stroke="white" stroke-width="1.5" stroke-linecap="round" stroke-linejoin="round"/>
</svg>
