<svg width="30" height="30" viewBox="0 0 30 30" fill="none" xmlns="http://www.w3.org/2000/svg">
<g clip-path="url(#clip0_295_2132)">
<path d="M15.0001 28.9284C22.6926 28.9284 28.9287 22.6924 28.9287 14.9999C28.9287 7.30732 22.6926 1.07129 15.0001 1.07129C7.30757 1.07129 1.07153 7.30732 1.07153 14.9999C1.07153 22.6924 7.30757 28.9284 15.0001 28.9284Z" stroke="white" stroke-width="1.5" stroke-linecap="round" stroke-linejoin="round"/>
<path d="M1.07153 15H28.9287" stroke="white" stroke-width="1.5" stroke-linecap="round" stroke-linejoin="round"/>
<path d="M20.3574 14.9999C20.0942 20.0934 18.2181 24.9713 15.0002 28.9284C11.7823 24.9713 9.90621 20.0934 9.64307 14.9999C9.90621 9.90631 11.7823 5.0284 15.0002 1.07129C18.2181 5.0284 20.0942 9.90631 20.3574 14.9999V14.9999Z" stroke="white" stroke-width="1.5" stroke-linecap="round" stroke-linejoin="round"/>
</g>
<defs>
<clipPath id="clip0_295_2132">
<rect width="30" height="30" fill="white"/>
</clipPath>
</defs>
</svg>
