<svg width="24" height="24" viewBox="0 0 24 24" fill="none" xmlns="http://www.w3.org/2000/svg">
<path d="M17.1426 2.57227H6.85686C5.91009 2.57227 5.14258 3.33978 5.14258 4.28655V12.858C5.14258 13.8048 5.91009 14.5723 6.85686 14.5723H17.1426C18.0894 14.5723 18.8569 13.8048 18.8569 12.858V4.28655C18.8569 3.33978 18.0894 2.57227 17.1426 2.57227Z" stroke="white" stroke-width="1.5" stroke-linecap="round" stroke-linejoin="round"/>
<path d="M5.14265 7.71484H2.57122C2.11656 7.71484 1.68053 7.89546 1.35904 8.21695C1.03755 8.53844 0.856934 8.97447 0.856934 9.42913V17.1434C0.856934 17.5981 1.03755 18.0341 1.35904 18.3556C1.68053 18.6771 2.11656 18.8577 2.57122 18.8577H21.4284C21.883 18.8577 22.3191 18.6771 22.6405 18.3556C22.962 18.0341 23.1426 17.5981 23.1426 17.1434V9.42913C23.1426 8.97447 22.962 8.53844 22.6405 8.21695C22.3191 7.89546 21.883 7.71484 21.4284 7.71484H18.8569" stroke="white" stroke-width="1.5" stroke-linecap="round" stroke-linejoin="round"/>
<path d="M6.85714 18.8574L6 23.1431" stroke="white" stroke-width="1.5" stroke-linecap="round" stroke-linejoin="round"/>
<path d="M17.1426 18.8574L17.9997 23.1431" stroke="white" stroke-width="1.5" stroke-linecap="round" stroke-linejoin="round"/>
</svg>
