<svg width="24" height="24" viewBox="0 0 24 24" fill="none" xmlns="http://www.w3.org/2000/svg">
<g clip-path="url(#clip0_295_1751)">
<path d="M11.9998 9.42836C18.1538 9.42836 23.1426 7.50958 23.1426 5.14265C23.1426 2.77571 18.1538 0.856934 11.9998 0.856934C5.84576 0.856934 0.856934 2.77571 0.856934 5.14265C0.856934 7.50958 5.84576 9.42836 11.9998 9.42836Z" stroke="white" stroke-width="1.5" stroke-linecap="round" stroke-linejoin="round"/>
<path d="M0.856934 5.14258V18.8569C0.856934 21.2226 5.84551 23.1426 11.9998 23.1426C18.1541 23.1426 23.1426 21.2226 23.1426 18.8569V5.14258" stroke="white" stroke-width="1.5" stroke-linecap="round" stroke-linejoin="round"/>
<path d="M23.1426 12C23.1426 14.3657 18.1541 16.2857 11.9998 16.2857C5.84551 16.2857 0.856934 14.3657 0.856934 12" stroke="white" stroke-width="1.5" stroke-linecap="round" stroke-linejoin="round"/>
</g>
<defs>
<clipPath id="clip0_295_1751">
<rect width="24" height="24" fill="white"/>
</clipPath>
</defs>
</svg>
