<svg width="25" height="25" viewBox="0 0 25 25" fill="none" xmlns="http://www.w3.org/2000/svg">
<g clip-path="url(#clip0_536_591)">
<path d="M2.67878 10.7144H4.4645C4.7013 10.7144 4.9284 10.8084 5.09584 10.9759C5.26328 11.1433 5.35735 11.3704 5.35735 11.6072V16.0715C5.35735 16.3083 5.26328 16.5354 5.09584 16.7028C4.9284 16.8703 4.7013 16.9644 4.4645 16.9644H2.67878C2.20518 16.9644 1.75098 16.7762 1.41609 16.4413C1.0812 16.1064 0.893066 15.6522 0.893066 15.1786V12.5001C0.893066 12.0265 1.0812 11.5723 1.41609 11.2374C1.75098 10.9025 2.20518 10.7144 2.67878 10.7144V10.7144Z" stroke="white" stroke-width="1.5" stroke-linecap="round" stroke-linejoin="round"/>
<path d="M22.3217 16.9644H20.536C20.2992 16.9644 20.0721 16.8703 19.9046 16.7028C19.7372 16.5354 19.6431 16.3083 19.6431 16.0715V11.6072C19.6431 11.3704 19.7372 11.1433 19.9046 10.9759C20.0721 10.8084 20.2992 10.7144 20.536 10.7144H22.3217C22.7953 10.7144 23.2495 10.9025 23.5844 11.2374C23.9193 11.5723 24.1074 12.0265 24.1074 12.5001V15.1786C24.1074 15.6522 23.9193 16.1064 23.5844 16.4413C23.2495 16.7762 22.7953 16.9644 22.3217 16.9644V16.9644Z" stroke="white" stroke-width="1.5" stroke-linecap="round" stroke-linejoin="round"/>
<path d="M16.9644 21.8751C17.9116 21.8751 18.82 21.4988 19.4897 20.829C20.1595 20.1592 20.5358 19.2508 20.5358 18.3036V16.9644" stroke="white" stroke-width="1.5" stroke-linecap="round" stroke-linejoin="round"/>
<path d="M14.7325 19.6431C15.3245 19.6431 15.8922 19.8782 16.3109 20.2968C16.7295 20.7155 16.9646 21.2832 16.9646 21.8752C16.9646 22.4672 16.7295 23.035 16.3109 23.4536C15.8922 23.8722 15.3245 24.1074 14.7325 24.1074H12.0539C11.4619 24.1074 10.8942 23.8722 10.4756 23.4536C10.0569 23.035 9.82178 22.4672 9.82178 21.8752C9.82178 21.2832 10.0569 20.7155 10.4756 20.2968C10.8942 19.8782 11.4619 19.6431 12.0539 19.6431H14.7325Z" stroke="white" stroke-width="1.5" stroke-linecap="round" stroke-linejoin="round"/>
<path d="M4.46436 10.7145V8.92878C4.46436 6.79758 5.31097 4.75366 6.81796 3.24667C8.32495 1.73968 10.3689 0.893066 12.5001 0.893066C14.6313 0.893066 16.6752 1.73968 18.1822 3.24667C19.6892 4.75366 20.5358 6.79758 20.5358 8.92878V10.7145" stroke="white" stroke-width="1.5" stroke-linecap="round" stroke-linejoin="round"/>
<path d="M9.82178 7.14307V9.82164" stroke="white" stroke-width="1.5" stroke-linecap="round" stroke-linejoin="round"/>
<path d="M15.1787 7.14307V9.82164" stroke="white" stroke-width="1.5" stroke-linecap="round" stroke-linejoin="round"/>
<path d="M9.82178 13.3931C9.82178 15.7681 15.1789 15.7681 15.1789 13.3931" stroke="white" stroke-width="1.5" stroke-linecap="round" stroke-linejoin="round"/>
</g>
<defs>
<clipPath id="clip0_536_591">
<rect width="25" height="25" fill="white"/>
</clipPath>
</defs>
</svg>
