<svg width="28" height="28" viewBox="0 0 28 28" fill="none" xmlns="http://www.w3.org/2000/svg">
<g clip-path="url(#clip0_489_778)">
<path d="M14.9401 13.8002C14.6434 13.929 14.3235 13.9954 14.0001 13.9954C13.6766 13.9954 13.3567 13.929 13.0601 13.8002L1.66005 8.52017C1.47494 8.4268 1.31937 8.28387 1.21068 8.10732C1.10198 7.93076 1.04443 7.7275 1.04443 7.52017C1.04443 7.31283 1.10198 7.10957 1.21068 6.93301C1.31937 6.75646 1.47494 6.61354 1.66005 6.52017L13.0601 1.20017C13.3567 1.07135 13.6766 1.00488 14.0001 1.00488C14.3235 1.00488 14.6434 1.07135 14.9401 1.20017L26.3401 6.48017C26.5252 6.57354 26.6807 6.71646 26.7894 6.89301C26.8981 7.06957 26.9557 7.27283 26.9557 7.48017C26.9557 7.6875 26.8981 7.89076 26.7894 8.06732C26.6807 8.24387 26.5252 8.3868 26.3401 8.48017L14.9401 13.8002Z" stroke="white" stroke-width="1.5" stroke-linecap="round" stroke-linejoin="round"/>
<path d="M27 14.7002L14.8 20.3202C14.5394 20.439 14.2564 20.5006 13.97 20.5006C13.6836 20.5006 13.4006 20.439 13.14 20.3202L1 14.7002" stroke="white" stroke-width="1.5" stroke-linecap="round" stroke-linejoin="round"/>
<path d="M27 21.2002L14.8 26.8202C14.5394 26.939 14.2564 27.0006 13.97 27.0006C13.6836 27.0006 13.4006 26.939 13.14 26.8202L1 21.2002" stroke="white" stroke-width="1.5" stroke-linecap="round" stroke-linejoin="round"/>
</g>
<defs>
<clipPath id="clip0_489_778">
<rect width="28" height="28" fill="white"/>
</clipPath>
</defs>
</svg>
