<svg width="24" height="24" viewBox="0 0 24 24" fill="none" xmlns="http://www.w3.org/2000/svg">
<g clip-path="url(#clip0_531_485)">
<path d="M4.28551 7.71456C6.17905 7.71456 7.71408 6.17954 7.71408 4.28599C7.71408 2.39245 6.17905 0.857422 4.28551 0.857422C2.39196 0.857422 0.856934 2.39245 0.856934 4.28599C0.856934 6.17954 2.39196 7.71456 4.28551 7.71456Z" stroke="white" stroke-width="1.5" stroke-linecap="round" stroke-linejoin="round"/>
<path d="M2.57122 11.1436H5.99979C6.45445 11.1436 6.89048 11.3242 7.21197 11.6457C7.53346 11.9671 7.71408 12.4032 7.71408 12.8578V18.0007H0.856934V12.8578C0.856934 12.4032 1.03755 11.9671 1.35904 11.6457C1.68053 11.3242 2.11656 11.1436 2.57122 11.1436V11.1436Z" stroke="white" stroke-width="1.5" stroke-linecap="round" stroke-linejoin="round"/>
<path d="M0.856934 18V23.1429" stroke="white" stroke-width="1.5" stroke-linecap="round" stroke-linejoin="round"/>
<path d="M7.71387 18V23.1429" stroke="white" stroke-width="1.5" stroke-linecap="round" stroke-linejoin="round"/>
<path d="M14.5713 9.42927L18.857 5.14355L23.1427 9.42927" stroke="white" stroke-width="1.5" stroke-linecap="round" stroke-linejoin="round"/>
<path d="M14.5713 16.2861L18.857 20.5718L23.1427 16.2861" stroke="white" stroke-width="1.5" stroke-linecap="round" stroke-linejoin="round"/>
</g>
<defs>
<clipPath id="clip0_531_485">
<rect width="24" height="24" fill="white"/>
</clipPath>
</defs>
</svg>
