<svg width="24" height="24" viewBox="0 0 24 24" fill="none" xmlns="http://www.w3.org/2000/svg">
<g clip-path="url(#clip0_563_119)">
<path d="M11.9998 23.1426C18.1538 23.1426 23.1426 18.1538 23.1426 11.9998C23.1426 5.84576 18.1538 0.856934 11.9998 0.856934C5.84576 0.856934 0.856934 5.84576 0.856934 11.9998C0.856934 18.1538 5.84576 23.1426 11.9998 23.1426Z" stroke="white" stroke-width="1.5" stroke-linecap="round" stroke-linejoin="round"/>
<path d="M12 0.856934V23.1426" stroke="white" stroke-width="1.5" stroke-linecap="round" stroke-linejoin="round"/>
<path d="M3.59961 19.3197C4.85573 18.555 5.89398 17.48 6.61452 16.198C7.33506 14.916 7.71365 13.4703 7.7139 11.9997C7.71365 10.5291 7.33506 9.08333 6.61452 7.80137C5.89398 6.51941 4.85573 5.44439 3.59961 4.67969" stroke="white" stroke-width="1.5" stroke-linecap="round" stroke-linejoin="round"/>
<path d="M20.4 4.67969C19.1443 5.44467 18.1066 6.51982 17.3864 7.80176C16.6663 9.0837 16.2881 10.5293 16.2881 11.9997C16.2881 13.47 16.6663 14.9157 17.3864 16.1976C18.1066 17.4796 19.1443 18.5547 20.4 19.3197" stroke="white" stroke-width="1.5" stroke-linecap="round" stroke-linejoin="round"/>
</g>
<defs>
<clipPath id="clip0_563_119">
<rect width="24" height="24" fill="white"/>
</clipPath>
</defs>
</svg>
