<svg width="24" height="24" viewBox="0 0 24 24" fill="none" xmlns="http://www.w3.org/2000/svg">
<path d="M14.3131 19.9002C15.1235 20.4238 16.0892 20.652 17.0478 20.5464C18.0064 20.4407 18.8995 20.0078 19.5769 19.3203L20.169 18.7404C20.4286 18.4744 20.574 18.1172 20.574 17.7453C20.574 17.3734 20.4286 17.0162 20.169 16.7503L17.6556 14.2593C17.3923 14.0001 17.0379 13.8549 16.6687 13.8549C16.2995 13.8549 15.945 14.0001 15.6817 14.2593V14.2593C15.4162 14.5193 15.0596 14.6649 14.6882 14.6649C14.3168 14.6649 13.9602 14.5193 13.6947 14.2593L9.74687 10.3055C9.61517 10.1755 9.51059 10.0206 9.43921 9.84975C9.36783 9.67892 9.33107 9.49559 9.33107 9.31041C9.33107 9.12522 9.36783 8.94189 9.43921 8.77106C9.51059 8.60024 9.61517 8.44533 9.74687 8.31535V8.31535C10.0057 8.05162 10.1507 7.69665 10.1507 7.32689C10.1507 6.95712 10.0057 6.60215 9.74687 6.33842L7.2466 3.83431C6.98105 3.57429 6.62444 3.42871 6.25307 3.42871C5.8817 3.42871 5.52509 3.57429 5.25954 3.83431L4.68053 4.42739C3.99407 5.10579 3.56177 6.00024 3.45633 6.96032C3.35088 7.9204 3.57872 8.88757 4.10152 9.6992C6.82556 13.7199 10.2916 17.1823 14.3131 19.9002V19.9002Z" stroke="#ADB295" stroke-width="1.5" stroke-linecap="round" stroke-linejoin="round"/>
</svg>
