<svg width="24" height="24" viewBox="0 0 24 24" fill="none" xmlns="http://www.w3.org/2000/svg">
<g clip-path="url(#clip0_295_1980)">
<path d="M21.4284 0.856934H2.57122C1.62445 0.856934 0.856934 1.62445 0.856934 2.57122V21.4284C0.856934 22.3751 1.62445 23.1426 2.57122 23.1426H21.4284C22.3751 23.1426 23.1426 22.3751 23.1426 21.4284V2.57122C23.1426 1.62445 22.3751 0.856934 21.4284 0.856934Z" stroke="white" stroke-width="1.5" stroke-linecap="round" stroke-linejoin="round"/>
<path d="M9.41113 18.1028V11.5371C9.41592 11.4362 9.44541 11.338 9.497 11.2512C9.54859 11.1643 9.62071 11.0915 9.70703 11.039C9.79335 10.9865 9.89122 10.9561 9.99207 10.9502C10.0929 10.9444 10.1936 10.9635 10.2854 11.0057L15.9768 14.2799C16.069 14.3367 16.1451 14.4162 16.1979 14.5107C16.2507 14.6052 16.2784 14.7117 16.2784 14.8199C16.2784 14.9282 16.2507 15.0347 16.1979 15.1292C16.1451 15.2237 16.069 15.3032 15.9768 15.3599L10.2854 18.6514C10.1921 18.6898 10.0909 18.7053 9.99031 18.6967C9.88973 18.6881 9.79266 18.6556 9.70716 18.602C9.62165 18.5483 9.55019 18.4751 9.4987 18.3882C9.44722 18.3014 9.41719 18.2036 9.41113 18.1028V18.1028Z" stroke="white" stroke-width="1.5" stroke-linecap="round" stroke-linejoin="round"/>
<path d="M0.856934 6.85742H23.1426" stroke="white" stroke-width="1.5" stroke-linecap="round" stroke-linejoin="round"/>
<path d="M6.85693 6.85693L9.42836 0.856934" stroke="white" stroke-width="1.5" stroke-linecap="round" stroke-linejoin="round"/>
<path d="M14.5713 6.85693L17.1427 0.856934" stroke="white" stroke-width="1.5" stroke-linecap="round" stroke-linejoin="round"/>
</g>
<defs>
<clipPath id="clip0_295_1980">
<rect width="24" height="24" fill="white"/>
</clipPath>
</defs>
</svg>
