<svg width="24" height="24" viewBox="0 0 24 24" fill="none" xmlns="http://www.w3.org/2000/svg">
<g clip-path="url(#clip0_529_225)">
<path d="M21.4282 2.57129L15.5825 8.417" stroke="white" stroke-width="1.5" stroke-linecap="round" stroke-linejoin="round"/>
<path d="M2.57129 2.57129L8.417 8.417" stroke="white" stroke-width="1.5" stroke-linecap="round" stroke-linejoin="round"/>
<path d="M2.57129 21.4287L8.417 15.583" stroke="white" stroke-width="1.5" stroke-linecap="round" stroke-linejoin="round"/>
<path d="M21.4282 21.4287L15.5825 15.583" stroke="white" stroke-width="1.5" stroke-linecap="round" stroke-linejoin="round"/>
<path d="M11.9998 23.1431C18.1538 23.1431 23.1426 18.1543 23.1426 12.0003C23.1426 5.84625 18.1538 0.857422 11.9998 0.857422C5.84576 0.857422 0.856934 5.84625 0.856934 12.0003C0.856934 18.1543 5.84576 23.1431 11.9998 23.1431Z" stroke="white" stroke-width="1.5" stroke-linecap="round" stroke-linejoin="round"/>
<path d="M12 17.0576C14.793 17.0576 17.0572 14.7935 17.0572 12.0005C17.0572 9.20752 14.793 6.94336 12 6.94336C9.20703 6.94336 6.94287 9.20752 6.94287 12.0005C6.94287 14.7935 9.20703 17.0576 12 17.0576Z" stroke="white" stroke-width="1.5" stroke-linecap="round" stroke-linejoin="round"/>
</g>
<defs>
<clipPath id="clip0_529_225">
<rect width="24" height="24" fill="white"/>
</clipPath>
</defs>
</svg>
