<svg width="30" height="30" viewBox="0 0 30 30" fill="none" xmlns="http://www.w3.org/2000/svg">
<path d="M19.6764 0L18.8633 9.6379L27.3978 5.78798L30 14.2229L21.3153 16.8188L27.5263 24.482L20.1103 29.8323L15.1005 21.3187L10.0577 30L2.62513 24.6864L8.98626 16.8686L0 14.2885L2.9776 5.88102L11.2971 9.62348L10.6341 0H19.6764ZM12.0326 1.34184L12.7503 11.7411L3.72582 7.6828L1.7064 13.3856L11.2844 16.1361L4.54021 24.4217L9.65558 28.079L15.0954 18.7189L20.5022 27.9112L25.6176 24.2212L19.0363 16.102L28.3534 13.3188L26.5948 7.61597L17.3757 11.7751L18.255 1.34184H12.0326Z" fill="white"/>
</svg>
