<svg width="28" height="28" viewBox="0 0 28 28" fill="none" xmlns="http://www.w3.org/2000/svg">
<g clip-path="url(#clip0_489_758)">
<path d="M17 10C18.1046 10 19 9.10457 19 8C19 6.89543 18.1046 6 17 6C15.8954 6 15 6.89543 15 8C15 9.10457 15.8954 10 17 10Z" stroke="white" stroke-width="1.5" stroke-linecap="round" stroke-linejoin="round"/>
<path d="M9 20C9.55228 20 10 19.5523 10 19C10 18.4477 9.55228 18 9 18C8.44772 18 8 18.4477 8 19C8 19.5523 8.44772 20 9 20Z" stroke="white" stroke-width="1.5" stroke-linecap="round" stroke-linejoin="round"/>
<path d="M9 13C10.1046 13 11 12.1046 11 11C11 9.89543 10.1046 9 9 9C7.89543 9 7 9.89543 7 11C7 12.1046 7.89543 13 9 13Z" stroke="white" stroke-width="1.5" stroke-linecap="round" stroke-linejoin="round"/>
<path d="M19.0398 24.56C19.0175 24.1721 18.8827 23.799 18.6518 23.4865C18.4209 23.1739 18.104 22.9354 17.7398 22.8C16.8352 22.5027 16.0663 21.8924 15.5714 21.0789C15.0765 20.2655 14.8881 19.3021 15.0399 18.3621C15.1918 17.4221 15.674 16.5671 16.3998 15.9508C17.1257 15.3345 18.0476 14.9974 18.9998 15H22.7398C23.3812 15.0018 24.0137 14.8493 24.5839 14.5553C25.154 14.2614 25.6451 13.8346 26.0157 13.3111C26.3864 12.7875 26.6256 12.1825 26.7133 11.5471C26.8011 10.9116 26.7347 10.2644 26.5198 9.66C25.7243 7.41394 24.3268 5.42971 22.48 3.9241C20.6332 2.41848 18.4081 1.44941 16.0478 1.12275C13.6876 0.796089 11.2829 1.12441 9.0966 2.07184C6.91029 3.01927 5.02642 4.54937 3.65082 6.49496C2.27522 8.44054 1.4608 10.7268 1.29655 13.1039C1.1323 15.481 1.62453 17.8575 2.71947 19.9738C3.8144 22.0901 5.46992 23.8647 7.50515 25.1039C9.54038 26.343 11.877 26.9989 14.2598 27C15.4365 27.0033 16.6079 26.8417 17.7398 26.52C18.1555 26.4035 18.5155 26.1415 18.7542 25.7817C18.9928 25.4219 19.0942 24.9883 19.0398 24.56V24.56Z" stroke="white" stroke-width="1.5" stroke-linecap="round" stroke-linejoin="round"/>
</g>
<defs>
<clipPath id="clip0_489_758">
<rect width="28" height="28" fill="white"/>
</clipPath>
</defs>
</svg>
