<svg width="60" height="60" viewBox="0 0 60 60" fill="none" xmlns="http://www.w3.org/2000/svg">
<g clip-path="url(#clip0_453_314)">
<path fill-rule="evenodd" clip-rule="evenodd" d="M51.2135 8.78554C46.0135 3.58754 39.0859 0.479915 31.7458 0.0526805C24.4057 -0.374554 17.1643 1.90834 11.3963 6.46795C5.62839 11.0276 1.73552 17.5464 0.456811 24.7869C-0.821897 32.0273 0.602588 39.4853 4.45982 45.7447L5.12591 46.8228L1.43774e-05 59.9991L13.1766 54.8733L14.2547 55.5393C20.5141 59.3973 27.9724 60.8224 35.2133 59.544C42.4543 58.2655 48.9736 54.3726 53.5334 48.6043C58.0933 42.836 60.3761 35.594 59.9484 28.2536C59.5208 20.9131 56.4124 13.9853 51.2135 8.78554ZM46.6232 20.9532C46.7233 21.0205 46.8054 21.1113 46.8622 21.2177C46.919 21.3241 46.9487 21.4428 46.9488 21.5634V38.4347C46.9489 38.5553 46.9192 38.674 46.8625 38.7804C46.8058 38.8868 46.7237 38.9776 46.6236 39.0448C46.5234 39.112 46.4083 39.1535 46.2883 39.1656C46.1683 39.1778 46.0472 39.1602 45.9356 39.1144L37.5 35.6647L37.461 38.314C37.4401 39.7305 36.3696 41.0304 34.8993 41.0304H15.6151C14.1268 41.0304 13.0512 39.7008 13.0512 38.2679V21.7295C13.0512 20.2966 14.1267 18.9677 15.6151 18.9677H34.8992C36.3695 18.9677 37.44 20.2685 37.4609 21.6847L37.5 24.3344L45.936 20.8829C46.0475 20.8374 46.1685 20.8199 46.2884 20.8322C46.4082 20.8445 46.5232 20.886 46.6232 20.9532Z" fill="white"/>
</g>
<defs>
<clipPath id="clip0_453_314">
<rect width="60" height="60" fill="white"/>
</clipPath>
</defs>
</svg>
