<svg width="24" height="24" viewBox="0 0 24 24" fill="none" xmlns="http://www.w3.org/2000/svg">
<path d="M22.6801 10.8511C22.9644 11.1662 23.1218 11.5754 23.1218 11.9997C23.1218 12.424 22.9644 12.8333 22.6801 13.1483C20.8801 15.0854 16.7829 18.8569 12.0001 18.8569C7.21723 18.8569 3.12008 15.0854 1.32008 13.1483C1.03579 12.8333 0.878418 12.424 0.878418 11.9997C0.878418 11.5754 1.03579 11.1662 1.32008 10.8511C3.12008 8.91401 7.21723 5.14258 12.0001 5.14258C16.7829 5.14258 20.8801 8.91401 22.6801 10.8511Z" stroke="white" stroke-width="1.5" stroke-linecap="round" stroke-linejoin="round"/>
<path d="M11.9999 15.4284C13.8934 15.4284 15.4284 13.8934 15.4284 11.9999C15.4284 10.1063 13.8934 8.57129 11.9999 8.57129C10.1063 8.57129 8.57129 10.1063 8.57129 11.9999C8.57129 13.8934 10.1063 15.4284 11.9999 15.4284Z" stroke="white" stroke-width="1.5" stroke-linecap="round" stroke-linejoin="round"/>
</svg>
