<svg width="24" height="24" viewBox="0 0 24 24" fill="none" xmlns="http://www.w3.org/2000/svg">
<g clip-path="url(#clip0_1011_2167)">
<path d="M11.9998 23.1431C18.1538 23.1431 23.1426 18.1543 23.1426 12.0003C23.1426 5.84625 18.1538 0.857422 11.9998 0.857422C5.84576 0.857422 0.856934 5.84625 0.856934 12.0003C0.856934 18.1543 5.84576 23.1431 11.9998 23.1431Z" stroke="white" stroke-width="1.5" stroke-linecap="round" stroke-linejoin="round"/>
<path d="M11.9999 0.857422C11.9999 0.857422 5.02274 7.01171 11.9999 12.0003C17.9999 16.286 11.9999 23.1431 11.9999 23.1431" stroke="white" stroke-width="1.5" stroke-linecap="round" stroke-linejoin="round"/>
<path d="M15.4282 9.42857C16.3749 9.42857 17.1424 8.66106 17.1424 7.71429C17.1424 6.76751 16.3749 6 15.4282 6C14.4814 6 13.7139 6.76751 13.7139 7.71429C13.7139 8.66106 14.4814 9.42857 15.4282 9.42857Z" stroke="white" stroke-width="1.5" stroke-linecap="round" stroke-linejoin="round"/>
<path d="M8.57122 18.0008C9.51799 18.0008 10.2855 17.2333 10.2855 16.2866C10.2855 15.3398 9.51799 14.5723 8.57122 14.5723C7.62445 14.5723 6.85693 15.3398 6.85693 16.2866C6.85693 17.2333 7.62445 18.0008 8.57122 18.0008Z" stroke="white" stroke-width="1.5" stroke-linecap="round" stroke-linejoin="round"/>
</g>
<defs>
<clipPath id="clip0_1011_2167">
<rect width="24" height="24" fill="white"/>
</clipPath>
</defs>
</svg>
