<svg width="25" height="25" viewBox="0 0 25 25" fill="none" xmlns="http://www.w3.org/2000/svg">
<g clip-path="url(#clip0_618_779)">
<path d="M13.3384 12.3218C13.0736 12.4368 12.7879 12.4962 12.4992 12.4962C12.2104 12.4962 11.9247 12.4368 11.6599 12.3218L1.4813 7.60754C1.31602 7.52417 1.17712 7.39656 1.08007 7.23892C0.983025 7.08128 0.931641 6.8998 0.931641 6.71468C0.931641 6.52956 0.983025 6.34808 1.08007 6.19044C1.17712 6.03279 1.31602 5.90519 1.4813 5.82182L11.6599 1.07182C11.9247 0.956809 12.2104 0.897461 12.4992 0.897461C12.7879 0.897461 13.0736 0.956809 13.3384 1.07182L23.517 5.78611C23.6823 5.86947 23.8212 5.99708 23.9182 6.15472C24.0153 6.31236 24.0667 6.49385 24.0667 6.67896C24.0667 6.86408 24.0153 7.04557 23.9182 7.20321C23.8212 7.36085 23.6823 7.48845 23.517 7.57182L13.3384 12.3218Z" stroke="white" stroke-width="1.5" stroke-linecap="round" stroke-linejoin="round"/>
<path d="M24.1069 13.125L13.214 18.1429C12.9814 18.249 12.7286 18.3039 12.4729 18.3039C12.2172 18.3039 11.9645 18.249 11.7319 18.1429L0.892578 13.125" stroke="white" stroke-width="1.5" stroke-linecap="round" stroke-linejoin="round"/>
<path d="M24.1069 18.9287L13.214 23.9466C12.9814 24.0527 12.7286 24.1076 12.4729 24.1076C12.2172 24.1076 11.9645 24.0527 11.7319 23.9466L0.892578 18.9287" stroke="white" stroke-width="1.5" stroke-linecap="round" stroke-linejoin="round"/>
</g>
<defs>
<clipPath id="clip0_618_779">
<rect width="25" height="25" fill="white"/>
</clipPath>
</defs>
</svg>
