<svg width="24" height="24" viewBox="0 0 24 24" fill="none" xmlns="http://www.w3.org/2000/svg">
<g clip-path="url(#clip0_295_1734)">
<path d="M20.1426 17.1426C20.736 17.1426 21.316 17.3186 21.8094 17.6482C22.3027 17.9779 22.6872 18.4464 22.9143 18.9946C23.1414 19.5428 23.2008 20.146 23.085 20.7279C22.9693 21.3099 22.6835 21.8444 22.264 22.264C21.8444 22.6835 21.3099 22.9693 20.7279 23.085C20.146 23.2008 19.5428 23.1414 18.9946 22.9143C18.4464 22.6872 17.9779 22.3027 17.6482 21.8094C17.3186 21.316 17.1426 20.736 17.1426 20.1426V3.85693C17.1426 3.26359 17.3186 2.68357 17.6482 2.19022C17.9779 1.69688 18.4464 1.31236 18.9946 1.0853C19.5428 0.858233 20.146 0.798823 20.7279 0.914579C21.3099 1.03033 21.8444 1.31606 22.264 1.73561C22.6835 2.15517 22.9693 2.68972 23.085 3.27166C23.2008 3.85361 23.1414 4.45681 22.9143 5.00499C22.6872 5.55316 22.3027 6.0217 21.8094 6.35134C21.316 6.68099 20.736 6.85693 20.1426 6.85693H3.85693C3.26359 6.85693 2.68357 6.68099 2.19022 6.35134C1.69688 6.0217 1.31236 5.55316 1.0853 5.00499C0.858233 4.45681 0.798823 3.85361 0.914579 3.27166C1.03033 2.68972 1.31606 2.15517 1.73561 1.73561C2.15517 1.31606 2.68972 1.03033 3.27166 0.914579C3.85361 0.798823 4.45681 0.858233 5.00499 1.0853C5.55316 1.31236 6.0217 1.69688 6.35134 2.19022C6.68099 2.68357 6.85693 3.26359 6.85693 3.85693V20.1426C6.85693 20.736 6.68099 21.316 6.35134 21.8094C6.0217 22.3027 5.55316 22.6872 5.00499 22.9143C4.45681 23.1414 3.85361 23.2008 3.27166 23.085C2.68972 22.9693 2.15517 22.6835 1.73561 22.264C1.31606 21.8444 1.03033 21.3099 0.914579 20.7279C0.798823 20.146 0.858233 19.5428 1.0853 18.9946C1.31236 18.4464 1.69688 17.9779 2.19022 17.6482C2.68357 17.3186 3.26359 17.1426 3.85693 17.1426H20.1426Z" stroke="white" stroke-width="1.5" stroke-linecap="round" stroke-linejoin="round"/>
</g>
<defs>
<clipPath id="clip0_295_1734">
<rect width="24" height="24" fill="white"/>
</clipPath>
</defs>
</svg>
