<svg width="24" height="24" viewBox="0 0 24 24" fill="none" xmlns="http://www.w3.org/2000/svg">
<g clip-path="url(#clip0_1011_1754)">
<path d="M11.9998 23.1431C18.1538 23.1431 23.1426 18.1543 23.1426 12.0003C23.1426 5.84625 18.1538 0.857422 11.9998 0.857422C5.84576 0.857422 0.856934 5.84625 0.856934 12.0003C0.856934 18.1543 5.84576 23.1431 11.9998 23.1431Z" stroke="white" stroke-width="1.5" stroke-linecap="round" stroke-linejoin="round"/>
<path d="M0.856934 12H23.1426" stroke="white" stroke-width="1.5" stroke-linecap="round" stroke-linejoin="round"/>
<path d="M16.2853 12.0003C16.0748 16.0751 14.5739 19.9774 11.9996 23.1431C9.42527 19.9774 7.92438 16.0751 7.71387 12.0003C7.92438 7.92544 9.42527 4.02311 11.9996 0.857422C14.5739 4.02311 16.0748 7.92544 16.2853 12.0003V12.0003Z" stroke="white" stroke-width="1.5" stroke-linecap="round" stroke-linejoin="round"/>
</g>
<defs>
<clipPath id="clip0_1011_1754">
<rect width="24" height="24" fill="white"/>
</clipPath>
</defs>
</svg>
