<svg width="45" height="45" viewBox="0 0 45 45" fill="none" xmlns="http://www.w3.org/2000/svg">
<path d="M5.68539 36.3309C3.38202 33.6618 2 30.75 2 25.8971C2 17.4044 7.75843 9.88235 15.8202 6L17.8933 9.15441C10.2921 13.5221 8.67978 19.1029 8.2191 22.7426C9.37079 22.0147 10.9831 21.7721 12.5955 22.0147C16.7416 22.5 19.9663 25.8971 19.9663 30.5074C19.9663 32.6912 19.0449 34.875 17.6629 36.5735C16.0506 38.2721 14.2079 39 11.9045 39C9.37079 39 7.06742 37.7868 5.68539 36.3309ZM28.7191 36.3309C26.4157 33.6618 25.0337 30.75 25.0337 25.8971C25.0337 17.4044 30.7921 9.88235 38.8539 6L40.927 9.15441C33.3258 13.5221 31.7135 19.1029 31.2528 22.7426C32.4045 22.0147 34.0169 21.7721 35.6292 22.0147C39.7753 22.5 43 25.8971 43 30.5074C43 32.6912 42.0787 34.875 40.6966 36.5735C39.3146 38.2721 37.2416 39 34.9382 39C32.4045 39 30.1011 37.7868 28.7191 36.3309Z" fill="#ADB295"/>
</svg>
