<svg width="147" height="50" viewBox="0 0 147 50" fill="none" xmlns="http://www.w3.org/2000/svg">
<circle cx="25" cy="25" r="25" fill="#ADB295"/>
<path d="M24.9285 17.5769C24.9073 17.5769 24.8929 17.5712 24.8853 17.5606C24.8778 17.5506 24.8735 17.5381 24.8716 17.523C24.7507 16.4837 24.2517 15.7079 23.3752 15.1964C23.007 14.9816 22.5944 14.8545 22.1367 14.8151C22.1217 14.8138 22.1104 14.8057 22.1042 14.7919L22.0966 14.7731C22.0841 14.7424 22.1054 14.708 22.1392 14.7061C22.5518 14.6804 22.9363 14.5715 23.2925 14.3805C24.2217 13.8815 24.7476 13.1039 24.871 12.0482C24.8735 12.0269 24.8847 12.0125 24.9048 12.005C24.9135 12.0019 24.9229 12 24.9329 12C24.9436 12 24.953 12.0019 24.9617 12.005C24.9818 12.0125 24.9931 12.0269 24.9955 12.0482C25.117 13.1045 25.6417 13.8828 26.5696 14.383C26.9259 14.5753 27.3103 14.6842 27.7229 14.7105C27.7561 14.7124 27.778 14.7468 27.7648 14.7781L27.7573 14.7963C27.7511 14.8107 27.7404 14.8182 27.7248 14.8194C27.2671 14.8583 26.8545 14.9847 26.4857 15.1989C25.6085 15.7092 25.1082 16.4837 24.9855 17.5231C24.9836 17.5381 24.9793 17.5506 24.9718 17.5606C24.9642 17.5713 24.9498 17.5769 24.9285 17.5769Z" fill="white"/>
<path d="M19.3956 16.0488C19.4013 16.0488 19.4069 16.0501 19.4119 16.0526C19.4194 16.0563 19.4238 16.062 19.425 16.0707C19.5471 16.8966 20.197 17.5847 21.0536 17.6711C21.0786 17.6736 21.0905 17.6868 21.0905 17.7093C21.0905 17.7319 21.078 17.7444 21.0536 17.7469C20.1964 17.8295 19.5434 18.5145 19.4182 19.3397C19.4169 19.3485 19.4119 19.3548 19.4044 19.3585C19.3994 19.361 19.3944 19.3623 19.3887 19.3623C19.3831 19.3623 19.3775 19.361 19.3725 19.3585C19.365 19.3548 19.3606 19.3485 19.3593 19.3397C19.2372 18.5139 18.5873 17.8258 17.7308 17.7394C17.7064 17.7369 17.6938 17.7243 17.6938 17.7018C17.6938 17.6792 17.7064 17.6667 17.7308 17.6642C18.5879 17.5816 19.241 16.896 19.3668 16.0707C19.3681 16.062 19.3725 16.0557 19.38 16.0526C19.385 16.0501 19.39 16.0488 19.3956 16.0488Z" fill="white"/>
<path d="M30.5211 16.0469C30.5342 16.0469 30.5417 16.0525 30.5436 16.0644C30.6313 16.6962 30.9662 17.1708 31.5491 17.4895C31.7564 17.6028 31.9624 17.6635 32.1665 17.671C32.1721 17.671 32.1771 17.6735 32.1803 17.6779L32.1978 17.7005C32.2147 17.7224 32.2009 17.7537 32.1734 17.7562C31.3231 17.8313 30.7164 18.5144 30.5549 19.314C30.5492 19.344 30.5373 19.3591 30.5198 19.3591C30.5023 19.3591 30.4904 19.344 30.4841 19.314C30.3238 18.5144 29.7171 17.8307 28.8669 17.7549C28.8399 17.7524 28.8262 17.7211 28.8424 17.6992L28.86 17.6767C28.8631 17.6723 28.8687 17.6698 28.8737 17.6698C29.0779 17.6629 29.2839 17.6022 29.4917 17.4888C30.0746 17.1708 30.4102 16.6962 30.4979 16.0644C30.4998 16.0525 30.5073 16.0469 30.5211 16.0469Z" fill="white"/>
<path d="M27.4331 21.7794C27.5949 23.1574 26.6057 24.4065 25.2227 24.569C23.8401 24.7314 22.5879 23.7459 22.426 22.3676C22.2642 20.9897 23.2534 19.7406 24.6364 19.5781C26.019 19.4156 27.2712 20.4012 27.4331 21.7794Z" fill="white"/>
<path d="M24.9318 27.9442C25.0858 27.9504 25.2148 27.8885 25.3187 27.7582C26.2485 26.593 27.2985 25.5724 28.4687 24.6958C30.5418 23.143 32.8672 22.1306 35.4449 21.6585C35.4831 21.6516 35.5075 21.6491 35.5188 21.651C35.587 21.6629 35.5895 21.6836 35.5269 21.7124C32.0088 23.3353 28.9815 26.0476 27.2146 29.4976C26.8396 30.2302 26.4933 31.0961 26.1765 32.096C25.814 33.24 25.5373 34.6149 25.3563 35.9123C25.2336 36.7932 25.0971 37.7844 24.9474 38.8851C24.9418 38.9296 24.9324 38.9596 24.9205 38.9753C24.893 39.0116 24.8767 39.0078 24.8711 38.964C24.8498 38.7906 24.7502 37.9666 24.573 36.492C24.4209 35.2248 24.1886 33.9819 23.8762 32.7641C23.2901 30.4775 22.2483 28.4351 20.7512 26.6375C20.2472 26.032 19.7031 25.4434 19.129 24.915C17.7021 23.602 16.0904 22.5288 14.2941 21.6948C14.2878 21.6917 14.2847 21.6842 14.2878 21.6779C14.2985 21.656 14.3248 21.6485 14.3655 21.6548C14.9997 21.7512 15.6584 21.9046 16.3409 22.115C19.561 23.1086 22.3303 25.0214 24.4472 27.6217C24.5511 27.7488 24.7296 27.936 24.9318 27.9442Z" fill="white"/>
<path d="M33.3771 28.3785C31.5332 28.989 29.9253 29.9607 28.5548 31.2938C28.4008 31.4434 28.1998 31.6463 27.9512 31.903C27.9011 31.9543 27.883 31.9449 27.8974 31.8748C28.8735 26.9929 33.0184 23.5787 37.8901 23.0803C37.9077 23.0784 37.9233 23.0921 37.9227 23.1097C37.9208 23.218 37.9158 23.3119 37.9089 23.3902C37.7718 24.9123 37.3329 26.3618 36.5922 27.738C36.5753 27.7693 36.5434 27.79 36.5083 27.7919C35.3963 27.8601 34.3526 28.0554 33.3771 28.3785Z" fill="#274543"/>
<path d="M16.477 28.3741C15.5016 28.0517 14.4584 27.857 13.3465 27.79C13.3114 27.7875 13.2795 27.7674 13.2626 27.7361C12.5219 26.3605 12.0823 24.9123 11.944 23.3902C11.9371 23.3119 11.9321 23.2186 11.9302 23.1097C11.9296 23.0921 11.9452 23.0784 11.9628 23.0802C16.8333 23.5761 20.9788 26.9867 21.9574 31.8667C21.9712 31.9368 21.9537 31.9462 21.9036 31.8948C21.655 31.6381 21.4534 31.4353 21.2994 31.2856C19.9288 29.9545 18.321 28.984 16.477 28.3741Z" fill="#274543"/>
<path d="M15.8657 31.3282C15.7329 31.2161 15.7166 31.2311 15.8168 31.3732C17.3176 33.5027 19.8327 34.7393 22.4424 34.306C22.4887 34.2985 22.5231 34.3035 22.5457 34.321C22.5707 34.3411 22.5945 34.3711 22.6164 34.4118C23.1555 35.4017 23.5224 36.4436 23.7171 37.5368C23.7228 37.5688 23.7009 37.5988 23.6683 37.6032C23.4297 37.6314 23.1856 37.6451 22.9357 37.6445C21.5545 37.6426 20.2071 37.4517 18.8929 37.0716C17.8598 36.7723 16.8437 36.3084 15.902 35.7705C13.2366 34.249 11.0872 31.8504 10.004 28.9577C9.99082 28.922 10.0115 28.8825 10.0484 28.8731C11.1097 28.6051 12.201 28.5394 13.3587 28.602C16.823 28.7886 20.0882 30.6701 22.0648 33.4858C22.0798 33.5071 22.0667 33.5371 22.041 33.5403C21.2477 33.6486 20.4839 33.6091 19.7494 33.4219C18.3125 33.055 16.9852 32.2755 15.8657 31.3282Z" fill="#274543"/>
<path d="M34.0659 31.2363C34.0446 31.2419 34.0258 31.2526 34.0102 31.2676C33.4861 31.7654 32.8425 32.2218 32.078 32.6375C30.8971 33.2799 29.6392 33.6412 28.305 33.5918C28.1291 33.5849 27.9669 33.5667 27.8198 33.5367C27.7778 33.5285 27.769 33.5066 27.7941 33.4715C29.4113 31.2062 31.5652 29.7035 34.2562 28.9641C36.0644 28.4675 37.9916 28.4726 39.8105 28.8639C39.848 28.872 39.8687 28.9115 39.8549 28.9472C37.6898 34.5053 32.0473 37.9671 26.1305 37.6071C26.0929 37.6052 26.066 37.5708 26.0735 37.5338C26.2958 36.4081 26.6915 35.3361 27.2619 34.3181C27.2757 34.293 27.3038 34.2799 27.3314 34.2849C30.0237 34.7595 32.5845 33.4866 34.0815 31.2588C34.0959 31.2375 34.0909 31.23 34.0659 31.2363Z" fill="#274543"/>
<path d="M63.794 35V16.046H67.85V32.088L67.252 31.412H76.3V35H63.794ZM78.39 35V21.064H82.212V35H78.39ZM80.288 19.426C79.6986 19.426 79.2133 19.27 78.832 18.958C78.4506 18.646 78.26 18.2127 78.26 17.658C78.26 17.086 78.4506 16.644 78.832 16.332C79.2133 16.02 79.6986 15.864 80.288 15.864C80.8946 15.864 81.3886 16.02 81.77 16.332C82.1513 16.644 82.342 17.086 82.342 17.658C82.342 18.2127 82.1513 18.646 81.77 18.958C81.3886 19.27 80.8946 19.426 80.288 19.426ZM86.4353 35V24.106H84.2513V21.064H86.4353V19.582C86.4353 18.438 86.7907 17.5627 87.5013 16.956C88.212 16.3493 89.2087 16.046 90.4913 16.046H93.1693V18.646H91.4793C91.0633 18.646 90.7513 18.7413 90.5433 18.932C90.3353 19.1053 90.2313 19.4087 90.2313 19.842V21.064H92.9613V24.106H90.2313V35H86.4353ZM100.9 35.26C99.4439 35.26 98.2045 34.9653 97.1819 34.376C96.1765 33.7867 95.4052 32.9547 94.8679 31.88C94.3305 30.8053 94.0619 29.5573 94.0619 28.136C94.0619 26.628 94.3305 25.328 94.8679 24.236C95.4225 23.144 96.1939 22.3033 97.1819 21.714C98.1872 21.1073 99.3745 20.804 100.744 20.804C102.339 20.804 103.639 21.1507 104.644 21.844C105.667 22.5373 106.403 23.4907 106.854 24.704C107.305 25.9173 107.452 27.304 107.296 28.864H97.8059C97.8059 29.6267 97.9272 30.2767 98.1699 30.814C98.4299 31.334 98.7939 31.724 99.2619 31.984C99.7299 32.244 100.276 32.374 100.9 32.374C101.628 32.374 102.217 32.2267 102.668 31.932C103.119 31.6373 103.422 31.2473 103.578 30.762H107.192C107.053 31.6807 106.698 32.478 106.126 33.154C105.554 33.8127 104.817 34.3327 103.916 34.714C103.032 35.078 102.027 35.26 100.9 35.26ZM97.8059 26.862L97.4679 26.498H103.916L103.552 26.862C103.587 26.134 103.483 25.5447 103.24 25.094C103.015 24.626 102.685 24.2707 102.252 24.028C101.836 23.7853 101.333 23.664 100.744 23.664C100.155 23.664 99.6345 23.794 99.1839 24.054C98.7505 24.2967 98.4125 24.6607 98.1699 25.146C97.9445 25.614 97.8232 26.186 97.8059 26.862ZM116.241 35.234C115.183 35.234 114.23 35.078 113.381 34.766C112.531 34.4367 111.795 33.96 111.171 33.336C110.547 32.712 110.07 31.958 109.741 31.074C109.411 30.1727 109.247 29.1587 109.247 28.032C109.247 26.5933 109.524 25.3367 110.079 24.262C110.633 23.17 111.431 22.3207 112.471 21.714C113.511 21.1073 114.767 20.804 116.241 20.804C117.281 20.804 118.225 20.9687 119.075 21.298C119.924 21.6273 120.652 22.104 121.259 22.728C121.883 23.352 122.359 24.106 122.689 24.99C123.035 25.874 123.209 26.888 123.209 28.032C123.209 29.4533 122.931 30.71 122.377 31.802C121.822 32.8767 121.025 33.7173 119.985 34.324C118.962 34.9307 117.714 35.234 116.241 35.234ZM116.215 32.14C116.839 32.14 117.385 31.9927 117.853 31.698C118.338 31.386 118.702 30.9267 118.945 30.32C119.205 29.7133 119.335 28.9507 119.335 28.032C119.335 27.3387 119.265 26.7407 119.127 26.238C118.988 25.718 118.78 25.2847 118.503 24.938C118.225 24.5913 117.896 24.34 117.515 24.184C117.133 24.0107 116.709 23.924 116.241 23.924C115.617 23.924 115.062 24.0713 114.577 24.366C114.109 24.6607 113.745 25.1113 113.485 25.718C113.225 26.3247 113.095 27.096 113.095 28.032C113.095 28.7253 113.164 29.332 113.303 29.852C113.459 30.3547 113.675 30.7793 113.953 31.126C114.23 31.4553 114.559 31.7067 114.941 31.88C115.322 32.0533 115.747 32.14 116.215 32.14ZM125.693 35V21.064H129.359L129.515 23.586H129.671C130.052 22.65 130.641 21.9567 131.439 21.506C132.236 21.038 133.129 20.804 134.117 20.804C134.81 20.804 135.451 20.9167 136.041 21.142C136.647 21.35 137.167 21.6793 137.601 22.13C138.051 22.5807 138.398 23.1787 138.641 23.924C138.901 24.652 139.031 25.536 139.031 26.576V35H135.209V27.408C135.209 26.628 135.113 25.978 134.923 25.458C134.749 24.938 134.472 24.5567 134.091 24.314C133.709 24.054 133.207 23.924 132.583 23.924C131.924 23.924 131.369 24.08 130.919 24.392C130.468 24.704 130.121 25.1113 129.879 25.614C129.636 26.1167 129.515 26.6627 129.515 27.252V35H125.693Z" fill="white"/>
<path d="M143.442 35.208C142.853 35.208 142.376 35.0433 142.012 34.714C141.648 34.3673 141.466 33.9167 141.466 33.362C141.466 32.79 141.648 32.3393 142.012 32.01C142.376 31.6633 142.853 31.49 143.442 31.49C144.031 31.49 144.508 31.6633 144.872 32.01C145.236 32.3393 145.418 32.79 145.418 33.362C145.418 33.9167 145.236 34.3673 144.872 34.714C144.508 35.0433 144.031 35.208 143.442 35.208Z" fill="#ADB295"/>
</svg>
