<svg width="100" height="100" viewBox="0 0 100 100" fill="none" xmlns="http://www.w3.org/2000/svg">
<path d="M34.6151 46.1542H21.1534C19.5507 46.1542 18.1882 45.5935 17.0663 44.4716C15.945 43.3497 15.3837 41.9876 15.3837 40.3845V38.4623C15.3837 34.2152 16.8863 30.5897 19.8915 27.5846C22.8965 24.5804 26.5226 23.0778 30.7692 23.0778H34.6151C35.6566 23.0778 36.5577 22.697 37.3192 21.9361C38.0804 21.1747 38.4609 20.2736 38.4609 19.2319V11.5389C38.4609 10.4974 38.0802 9.59543 37.3192 8.83408C36.5579 8.07379 35.6568 7.69238 34.6151 7.69238H30.7692C26.6021 7.69238 22.6266 8.50446 18.8401 10.1263C15.054 11.7492 11.7792 13.9429 9.01444 16.7077C6.24987 19.4712 4.05677 22.7462 2.43411 26.5327C0.811439 30.3188 0 34.2954 0 38.4621V80.7688C0 83.9756 1.12128 86.6985 3.36489 88.9429C5.60872 91.1861 8.33372 92.3076 11.5386 92.3076H34.6166C37.8213 92.3076 40.5454 91.1861 42.7895 88.9429C45.0326 86.6985 46.1546 83.9756 46.1546 80.7688V57.6929C46.1546 54.4867 45.0326 51.7638 42.788 49.5191C40.545 47.2762 37.8198 46.1542 34.6151 46.1542Z" fill="white" fill-opacity="0.04"/>
<path d="M96.6367 49.5191C94.3937 47.2762 91.6693 46.1542 88.4638 46.1542H75.0023C73.4005 46.1542 72.0367 45.5935 70.9167 44.4716C69.7944 43.3497 69.2341 41.9876 69.2341 40.3845V38.4623C69.2341 34.2152 70.7367 30.5897 73.7404 27.5846C76.7443 24.5804 80.3702 23.0778 84.619 23.0778H88.464C89.5057 23.0778 90.4074 22.697 91.1684 21.9361C91.9289 21.1747 92.3109 20.2736 92.3109 19.2319V11.5389C92.3109 10.4974 91.9291 9.59543 91.1684 8.83408C90.4077 8.07379 89.5059 7.69238 88.464 7.69238H84.619C80.4496 7.69238 76.4749 8.50446 72.6874 10.1263C68.9019 11.7492 65.6281 13.9429 62.8634 16.7077C60.0986 19.4712 57.9044 22.7462 56.2824 26.5327C54.6601 30.3188 53.8477 34.2954 53.8477 38.4621V80.7688C53.8477 83.9756 54.97 86.6985 57.213 88.9429C59.4562 91.1861 62.1805 92.3076 65.3859 92.3076H88.4625C91.6681 92.3076 94.3922 91.1861 96.6352 88.9429C98.8799 86.6985 99.9999 83.9756 99.9999 80.7688V57.6929C100 54.4865 98.8799 51.7638 96.6367 49.5191Z" fill="white" fill-opacity="0.04"/>
</svg>
