<svg width="80" height="80" viewBox="0 0 80 80" fill="none" xmlns="http://www.w3.org/2000/svg">
<path d="M27.6921 36.9257H16.9227C15.6406 36.9257 14.5506 36.4771 13.6531 35.5796C12.756 34.6821 12.3069 33.5924 12.3069 32.3099V30.7722C12.3069 27.3745 13.5091 24.4741 15.9132 22.07C18.3172 19.6667 21.2181 18.4646 24.6154 18.4646H27.6921C28.5253 18.4646 29.2461 18.1599 29.8554 17.5512C30.4643 16.9421 30.7687 16.2212 30.7687 15.3879V9.23345C30.7687 8.40025 30.4641 7.67869 29.8554 7.06961C29.2463 6.46138 28.5254 6.15625 27.6921 6.15625H24.6154C21.2817 6.15625 18.1013 6.80591 15.0721 8.10337C12.0432 9.40168 9.42338 11.1567 7.21155 13.3685C4.99989 15.5793 3.24542 18.1993 1.94728 21.2285C0.649151 24.2574 0 27.4387 0 30.772V64.6174C0 67.1828 0.897024 69.3611 2.69191 71.1567C4.48697 72.9513 6.66698 73.8485 9.23091 73.8485H27.6932C30.257 73.8485 32.4363 72.9513 34.2316 71.1567C36.0261 69.3611 36.9236 67.1828 36.9236 64.6174V46.1567C36.9236 43.5917 36.0261 41.4134 34.2304 39.6177C32.436 37.8233 30.2558 36.9257 27.6921 36.9257Z" fill="#222222" fill-opacity="0.1"/>
<path d="M77.3093 39.6177C75.515 37.8233 73.3355 36.9257 70.771 36.9257H60.0019C58.7204 36.9257 57.6294 36.4771 56.7334 35.5796C55.8355 34.6821 55.3872 33.5924 55.3872 32.3099V30.7722C55.3872 27.3745 56.5894 24.4741 58.9923 22.07C61.3955 19.6667 64.2962 18.4646 67.6952 18.4646H70.7712C71.6046 18.4646 72.326 18.1599 72.9347 17.5512C73.5431 16.9421 73.8487 16.2212 73.8487 15.3879V9.23345C73.8487 8.40025 73.5433 7.67869 72.9347 7.06961C72.3261 6.46138 71.6047 6.15625 70.7712 6.15625H67.6952C64.3597 6.15625 61.1799 6.80591 58.1499 8.10337C55.1215 9.40168 52.5025 11.1567 50.2907 13.3685C48.0789 15.5793 46.3235 18.1993 45.0259 21.2285C43.7281 24.2574 43.0781 27.4387 43.0781 30.772V64.6174C43.0781 67.1828 43.976 69.3611 45.7704 71.1567C47.5649 72.9513 49.7444 73.8485 52.3087 73.8485H70.77C73.3345 73.8485 75.5138 72.9513 77.3082 71.1567C79.1039 69.3611 79.9999 67.1828 79.9999 64.6174V46.1567C80.0001 43.5916 79.1039 41.4134 77.3093 39.6177Z" fill="#222222" fill-opacity="0.1"/>
</svg>
