<svg width="163" height="40" viewBox="0 0 163 40" fill="none" xmlns="http://www.w3.org/2000/svg">
<path d="M42.824 14.174H59.3074V17.2425H52.8172V34.5405H49.2599V17.2425H42.7969L42.824 14.174ZM58.6013 19.7951H61.6428V22.6464H61.6971C61.8057 22.2391 61.9958 21.8589 62.2673 21.4788C62.5389 21.0986 62.8648 20.7456 63.2721 20.4469C63.6523 20.121 64.0867 19.8766 64.5755 19.6865C65.0372 19.4964 65.526 19.3878 66.0148 19.3878C66.395 19.3878 66.6665 19.4149 66.8023 19.4149C66.9381 19.4421 67.101 19.4693 67.2368 19.4693V22.5921C67.0195 22.5378 66.7751 22.5107 66.5307 22.4835C66.2863 22.4564 66.0691 22.4292 65.8247 22.4292C65.2816 22.4292 64.7656 22.5378 64.2768 22.7551C63.788 22.9723 63.3807 23.2982 63.0005 23.7055C62.6475 24.14 62.3488 24.656 62.1316 25.2805C61.9143 25.9051 61.8057 26.6383 61.8057 27.453V34.4591H58.547L58.6013 19.7951ZM82.1723 34.5405H78.9679V32.4767H78.9136C78.5063 33.2371 77.9089 33.8073 77.1214 34.269C76.3339 34.7306 75.5192 34.9479 74.7045 34.9479C72.7765 34.9479 71.3644 34.4862 70.4954 33.5086C69.6265 32.5582 69.192 31.0918 69.192 29.1638V19.7951H72.4506V28.8379C72.4506 30.1414 72.695 31.0646 73.211 31.5806C73.6998 32.1237 74.4058 32.3953 75.302 32.3953C75.9808 32.3953 76.5511 32.2866 77.0127 32.0694C77.4744 31.8521 77.8546 31.5806 78.1261 31.2276C78.4248 30.8746 78.6149 30.4401 78.7507 29.9513C78.8865 29.4625 78.9408 28.9194 78.9408 28.3491V19.7951H82.1994V34.5405H82.1723ZM87.712 29.8155C87.8206 30.7659 88.1736 31.4177 88.7982 31.825C89.4228 32.2052 90.1831 32.3953 91.0521 32.3953C91.3508 32.3953 91.7038 32.3681 92.084 32.3138C92.4642 32.2595 92.8444 32.178 93.1702 32.0422C93.5233 31.9065 93.7948 31.7164 94.0121 31.4448C94.2293 31.1733 94.3379 30.8474 94.3108 30.4401C94.2836 30.0327 94.1478 29.6797 93.8491 29.4082C93.5504 29.1366 93.1974 28.9465 92.7629 28.7564C92.3284 28.5935 91.8125 28.4577 91.2422 28.3491C90.6719 28.2405 90.1017 28.1047 89.5043 27.9689C88.9068 27.8331 88.3094 27.6702 87.7392 27.4801C87.1689 27.29 86.6801 27.0456 86.2184 26.6926C85.784 26.3667 85.4038 25.9594 85.1594 25.4435C84.8878 24.9275 84.7521 24.3301 84.7521 23.5697C84.7521 22.7551 84.9421 22.1033 85.3495 21.5602C85.7296 21.0171 86.2456 20.5826 86.843 20.2568C87.4404 19.9309 88.1193 19.6865 88.8525 19.5507C89.5857 19.4149 90.2918 19.3606 90.9435 19.3606C91.7038 19.3606 92.437 19.4421 93.1159 19.605C93.7948 19.768 94.4465 20.0124 94.9897 20.3925C95.5599 20.7456 96.0216 21.2344 96.3746 21.8046C96.7548 22.3749 96.972 23.0809 97.0806 23.8956H93.6862C93.5233 23.1081 93.1702 22.5921 92.6271 22.3206C92.0569 22.049 91.4323 21.9133 90.6991 21.9133C90.4819 21.9133 90.1831 21.9404 89.8844 21.9676C89.5586 22.0219 89.287 22.0762 88.9883 22.1848C88.7168 22.2934 88.4724 22.4564 88.2823 22.6464C88.0922 22.8365 87.9836 23.1081 87.9836 23.434C87.9836 23.8413 88.1193 24.14 88.3909 24.3844C88.6624 24.6288 89.0155 24.8189 89.4771 25.009C89.9116 25.1719 90.4275 25.3077 90.9978 25.4163C91.5681 25.5249 92.1655 25.6607 92.7629 25.7965C93.3603 25.9323 93.9306 26.0952 94.5009 26.2853C95.0711 26.4754 95.5871 26.7198 96.0216 27.0728C96.4561 27.3987 96.8362 27.806 97.1078 28.2948C97.3793 28.7836 97.5151 29.4082 97.5151 30.1142C97.5151 30.9832 97.325 31.7164 96.9177 32.3409C96.5104 32.9384 95.9944 33.4543 95.3698 33.8345C94.7453 34.2147 94.0121 34.4862 93.2517 34.6763C92.4642 34.8393 91.7038 34.9479 90.9435 34.9479C90.0202 34.9479 89.1512 34.8392 88.3637 34.622C87.5762 34.4048 86.8702 34.0789 86.2999 33.6716C85.7296 33.2371 85.268 32.7211 84.9421 32.0694C84.6163 31.4448 84.4262 30.6845 84.399 29.7883H87.6848V29.8155H87.712ZM98.4384 19.7951H100.91V15.3416H104.168V19.768H107.101V22.1848H104.168V30.0599C104.168 30.4129 104.195 30.6845 104.223 30.956C104.25 31.2004 104.331 31.4177 104.413 31.5806C104.521 31.7435 104.684 31.8793 104.874 31.9608C105.091 32.0422 105.363 32.0965 105.743 32.0965C105.96 32.0965 106.205 32.0965 106.422 32.0694C106.639 32.0422 106.884 32.0151 107.101 31.9608V34.4862C106.748 34.5405 106.395 34.5677 106.042 34.5948C105.689 34.6492 105.363 34.6492 104.983 34.6492C104.114 34.6492 103.435 34.5677 102.919 34.4048C102.403 34.2418 101.996 33.9974 101.697 33.6987C101.398 33.3729 101.208 32.9927 101.1 32.531C100.991 32.0694 100.937 31.4991 100.91 30.9017V22.212H98.4384V19.7408V19.7951ZM109.382 19.7951H112.451V21.8046H112.505C112.967 20.9357 113.591 20.3382 114.406 19.9581C115.22 19.5779 116.089 19.3878 117.067 19.3878C118.235 19.3878 119.239 19.5779 120.108 20.0124C120.977 20.4197 121.683 20.9628 122.254 21.696C122.824 22.402 123.258 23.2439 123.53 24.1943C123.802 25.1448 123.965 26.1767 123.965 27.2357C123.965 28.2405 123.829 29.1909 123.584 30.1142C123.313 31.0375 122.933 31.8793 122.417 32.5853C121.901 33.2914 121.249 33.8616 120.434 34.2961C119.62 34.7306 118.696 34.9479 117.61 34.9479C117.149 34.9479 116.66 34.8936 116.198 34.8121C115.736 34.7306 115.275 34.5949 114.84 34.4048C114.406 34.2147 113.998 33.9703 113.645 33.6716C113.265 33.3729 112.967 33.0198 112.722 32.6397H112.668V39.9988H109.409V19.7951H109.382ZM120.76 27.1814C120.76 26.5297 120.679 25.8779 120.489 25.2534C120.326 24.6288 120.054 24.0857 119.701 23.5969C119.348 23.1081 118.914 22.7279 118.425 22.4292C117.909 22.1305 117.311 21.9947 116.66 21.9947C115.302 21.9947 114.27 22.4564 113.564 23.4068C112.885 24.3572 112.532 25.6336 112.532 27.2086C112.532 27.9689 112.614 28.6478 112.804 29.2724C112.994 29.897 113.238 30.4401 113.618 30.9017C113.971 31.3633 114.406 31.7164 114.922 31.9879C115.438 32.2595 116.008 32.3953 116.687 32.3953C117.447 32.3953 118.045 32.2323 118.561 31.9336C119.077 31.6349 119.484 31.2276 119.837 30.7659C120.163 30.2771 120.407 29.734 120.543 29.1095C120.679 28.4577 120.76 27.8331 120.76 27.1814ZM126.49 14.174H129.749V17.2425H126.49V14.174ZM126.49 19.7951H129.749V34.5405H126.49V19.7951ZM132.654 14.174H135.913V34.5405H132.654V14.174ZM145.852 34.9479C144.684 34.9479 143.625 34.7578 142.702 34.3504C141.779 33.9431 141.018 33.4272 140.366 32.7483C139.742 32.0694 139.253 31.2276 138.927 30.2771C138.601 29.3267 138.411 28.2676 138.411 27.1543C138.411 26.0409 138.574 25.009 138.927 24.0585C139.253 23.1081 139.742 22.2934 140.366 21.5874C140.991 20.9085 141.779 20.3654 142.702 19.9852C143.625 19.605 144.684 19.3878 145.852 19.3878C147.02 19.3878 148.079 19.5779 149.002 19.9852C149.925 20.3654 150.685 20.9085 151.337 21.5874C151.962 22.2663 152.451 23.1081 152.776 24.0585C153.102 25.009 153.292 26.0409 153.292 27.1543C153.292 28.2948 153.129 29.3267 152.776 30.2771C152.423 31.2276 151.962 32.0422 151.337 32.7483C150.713 33.4272 149.925 33.9703 149.002 34.3504C148.079 34.7306 147.047 34.9479 145.852 34.9479ZM145.852 32.3681C146.558 32.3681 147.21 32.2052 147.726 31.9065C148.269 31.6077 148.676 31.2004 149.029 30.7116C149.382 30.2228 149.626 29.6526 149.789 29.0551C149.952 28.4306 150.034 27.806 150.034 27.1543C150.034 26.5297 149.952 25.9051 149.789 25.2805C149.626 24.656 149.382 24.1128 149.029 23.624C148.676 23.1352 148.242 22.7551 147.726 22.4564C147.182 22.1577 146.558 21.9947 145.852 21.9947C145.146 21.9947 144.494 22.1577 143.978 22.4564C143.435 22.7551 143.028 23.1624 142.675 23.624C142.322 24.1128 142.077 24.656 141.914 25.2805C141.751 25.9051 141.67 26.5297 141.67 27.1543C141.67 27.806 141.751 28.4306 141.914 29.0551C142.077 29.6797 142.322 30.2228 142.675 30.7116C143.028 31.2004 143.462 31.6077 143.978 31.9065C144.521 32.2323 145.146 32.3681 145.852 32.3681ZM154.27 19.7951H156.741V15.3416H160V19.768H162.933V22.1848H160V30.0599C160 30.4129 160.027 30.6845 160.054 30.956C160.081 31.2004 160.163 31.4177 160.244 31.5806C160.353 31.7435 160.516 31.8793 160.706 31.9608C160.923 32.0422 161.195 32.0965 161.575 32.0965C161.792 32.0965 162.036 32.0965 162.254 32.0694C162.471 32.0422 162.715 32.0151 162.933 31.9608V34.4862C162.58 34.5405 162.227 34.5677 161.874 34.5948C161.521 34.6492 161.195 34.6492 160.814 34.6492C159.946 34.6492 159.267 34.5677 158.751 34.4048C158.235 34.2418 157.827 33.9974 157.529 33.6987C157.23 33.3729 157.04 32.9927 156.931 32.531C156.823 32.0694 156.768 31.4991 156.741 30.9017V22.212H154.27V19.7408V19.7951Z" fill="#222222"/>
<path d="M39.0224 14.1753H24.114L19.5248 0.00012207L14.9083 14.1753L0 14.1481L12.057 22.9193L7.4406 37.0945L19.4976 28.3233L31.5546 37.0945L26.9654 22.9193L39.0224 14.1753Z" fill="#00B67A"/>
<path d="M27.9969 26.1244L26.965 22.92L19.5244 28.324L27.9969 26.1244Z" fill="#005128"/>
</svg>
