<svg width="119" height="40" viewBox="0 0 119 40" fill="none" xmlns="http://www.w3.org/2000/svg">
<g clip-path="url(#clip0_453_362)">
<path d="M50.3263 20.5126C50.3263 26.0648 45.9829 30.1561 40.6524 30.1561C35.322 30.1561 30.9785 26.0648 30.9785 20.5126C30.9785 14.9213 35.322 10.8691 40.6524 10.8691C45.9829 10.8691 50.3263 14.9213 50.3263 20.5126ZM46.0916 20.5126C46.0916 17.0431 43.5742 14.6691 40.6524 14.6691C37.7307 14.6691 35.2133 17.0431 35.2133 20.5126C35.2133 23.9474 37.7307 26.3561 40.6524 26.3561C43.5742 26.3561 46.0916 23.9431 46.0916 20.5126Z" fill="#EA4335"/>
<path d="M71.1955 20.5126C71.1955 26.0648 66.852 30.1561 61.5216 30.1561C56.1911 30.1561 51.8477 26.0648 51.8477 20.5126C51.8477 14.9257 56.1911 10.8691 61.5216 10.8691C66.852 10.8691 71.1955 14.9213 71.1955 20.5126ZM66.9607 20.5126C66.9607 17.0431 64.4433 14.6691 61.5216 14.6691C58.5998 14.6691 56.0824 17.0431 56.0824 20.5126C56.0824 23.9474 58.5998 26.3561 61.5216 26.3561C64.4433 26.3561 66.9607 23.9431 66.9607 20.5126Z" fill="#FBBC05"/>
<path d="M91.1959 11.4517V28.7648C91.1959 35.8865 86.9959 38.7952 82.0307 38.7952C77.3568 38.7952 74.5438 35.6691 73.4829 33.1126L77.1699 31.5778C77.8264 33.1474 79.4351 34.9996 82.0264 34.9996C85.2046 34.9996 87.1742 33.0387 87.1742 29.3474V27.9604H87.0264C86.0786 29.13 84.2525 30.1517 81.9481 30.1517C77.1264 30.1517 72.709 25.9517 72.709 20.5474C72.709 15.1039 77.1264 10.8691 81.9481 10.8691C84.2481 10.8691 86.0742 11.8909 87.0264 13.0257H87.1742V11.4561H91.1959V11.4517ZM87.4742 20.5474C87.4742 17.1517 85.209 14.6691 82.3264 14.6691C79.4046 14.6691 76.9568 17.1517 76.9568 20.5474C76.9568 23.9083 79.4046 26.3561 82.3264 26.3561C85.209 26.3561 87.4742 23.9083 87.4742 20.5474Z" fill="#4285F4"/>
<path d="M97.8257 1.30469V29.5656H93.6953V1.30469H97.8257Z" fill="#34A853"/>
<path d="M113.922 23.687L117.209 25.8783C116.148 27.4478 113.591 30.1522 109.174 30.1522C103.696 30.1522 99.6045 25.9174 99.6045 20.5087C99.6045 14.7739 103.731 10.8652 108.7 10.8652C113.704 10.8652 116.152 14.8478 116.952 17L117.391 18.0957L104.5 23.4348C105.487 25.3696 107.022 26.3565 109.174 26.3565C111.331 26.3565 112.826 25.2957 113.922 23.687ZM103.804 20.2174L112.422 16.6391C111.948 15.4348 110.522 14.5957 108.844 14.5957C106.691 14.5957 103.696 16.4957 103.804 20.2174Z" fill="#EA4335"/>
<path d="M15.3432 18.0051V13.9138H29.1302C29.2649 14.6268 29.3345 15.4703 29.3345 16.3833C29.3345 19.4529 28.4954 23.2486 25.791 25.9529C23.1606 28.692 19.7997 30.1529 15.3476 30.1529C7.09538 30.1529 0.15625 23.4312 0.15625 15.179C0.15625 6.92682 7.09538 0.205078 15.3476 0.205078C19.9128 0.205078 23.1649 1.99638 25.6084 4.33116L22.7215 7.21812C20.9693 5.57464 18.5954 4.29638 15.3432 4.29638C9.31712 4.29638 4.60408 9.1529 4.60408 15.179C4.60408 21.2051 9.31712 26.0616 15.3432 26.0616C19.2519 26.0616 21.478 24.492 22.9041 23.0659C24.0606 21.9094 24.8215 20.2573 25.1215 18.0007L15.3432 18.0051Z" fill="#4285F4"/>
</g>
<defs>
<clipPath id="clip0_453_362">
<rect width="118.261" height="40" fill="white"/>
</clipPath>
</defs>
</svg>
