<svg width="129" height="40" viewBox="0 0 129 40" fill="none" xmlns="http://www.w3.org/2000/svg">
<g clip-path="url(#clip0_453_348)">
<path d="M67.5669 10.0506C67.5669 11.4922 66.4054 12.653 64.9638 12.653C63.5222 12.653 62.3614 11.4922 62.3614 10.0506C62.3614 8.60903 63.4826 7.44825 64.9638 7.44825C66.4462 7.48825 67.5669 8.64943 67.5669 10.0506ZM56.836 15.2961V15.9369C56.836 15.9369 55.5952 14.3345 52.9524 14.3345C48.5885 14.3345 45.1846 17.6581 45.1846 22.2624C45.1846 26.8271 48.5485 30.1902 52.9524 30.1902C55.6352 30.1902 56.836 28.5486 56.836 28.5486V29.229C56.836 29.5494 57.0768 29.789 57.3968 29.789H60.6395V14.7337H57.3968C57.0768 14.7349 56.836 15.0157 56.836 15.2961ZM56.836 24.9451C56.236 25.8263 55.0344 26.5871 53.5932 26.5871C51.0309 26.5871 49.0685 24.9855 49.0685 22.2624C49.0685 19.5396 51.0309 17.938 53.5932 17.938C54.9948 17.938 56.276 18.7388 56.836 19.5796V24.9451ZM63.0422 14.7349H66.8858V29.7902H63.0422V14.7349ZM120.459 14.3341C117.816 14.3341 116.575 15.9365 116.575 15.9365V7.48825H112.731V29.7902H115.975C116.295 29.7902 116.535 29.5098 116.535 29.2294V28.549C116.535 28.549 117.776 30.1906 120.418 30.1906C124.783 30.1906 128.186 26.8283 128.186 22.2636C128.186 17.6988 124.783 14.3341 120.459 14.3341ZM119.818 26.5467C118.336 26.5467 117.176 25.7867 116.575 24.9051V19.5396C117.176 18.7388 118.457 17.898 119.818 17.898C122.381 17.898 124.343 19.4996 124.343 22.2224C124.343 24.9451 122.381 26.5467 119.818 26.5467ZM110.73 20.8616V29.8302H106.885V21.3016C106.885 18.8196 106.085 17.8181 103.924 17.8181C102.763 17.8181 101.561 18.4188 100.799 19.3V29.7906H96.9567V14.7353H99.9987C100.319 14.7353 100.559 15.0157 100.559 15.2961V15.9369C101.681 14.7753 103.162 14.3345 104.643 14.3345C106.325 14.3345 107.727 14.8157 108.848 15.7765C110.208 16.8977 110.73 18.3388 110.73 20.8616ZM87.6262 14.3341C84.9842 14.3341 83.7426 15.9365 83.7426 15.9365V7.48825H79.8991V29.7902H83.1418C83.4622 29.7902 83.7026 29.5098 83.7026 29.2294V28.549C83.7026 28.549 84.9442 30.1906 87.5861 30.1906C91.9509 30.1906 95.354 26.8283 95.354 22.2636C95.394 17.6984 91.9909 14.3341 87.6262 14.3341ZM86.9854 26.5467C85.5042 26.5467 84.3434 25.7867 83.7426 24.9051V19.5396C84.3434 18.7388 85.6246 17.898 86.9854 17.898C89.5485 17.898 91.5101 19.4996 91.5101 22.2224C91.5101 24.9451 89.5485 26.5467 86.9854 26.5467ZM76.5756 14.3341C77.7363 14.3341 78.3371 14.5349 78.3371 14.5349V18.098C78.3371 18.098 75.134 17.0169 73.1324 19.2996V29.8298H69.2881V14.7349H72.5317C72.852 14.7349 73.0916 15.0153 73.0916 15.2957V15.9365C73.8132 15.0953 75.3748 14.3341 76.5756 14.3341ZM36.6568 28.4286C36.4568 27.9483 36.2564 27.4279 36.0564 26.9871C35.7356 26.2667 35.4152 25.5855 35.1356 24.9451L35.0956 24.9051C32.3325 18.8988 29.3701 12.8134 26.2466 6.80787L26.1266 6.56707C25.798 5.94407 25.4779 5.3167 25.1662 4.68511C24.7654 3.96393 24.3654 3.20394 23.7246 2.48275C22.4434 0.881183 20.6015 0 18.6399 0C16.6376 0 14.836 0.881187 13.5152 2.40236C12.9144 3.12274 12.4736 3.88353 12.0737 4.60472C11.7612 5.23591 11.441 5.86327 11.1133 6.48667L10.9929 6.72747C7.90974 12.7329 4.907 18.8188 2.14425 24.8247L2.10386 24.9043C1.82387 25.5459 1.50307 26.2263 1.18268 26.9463C0.982681 27.3871 0.782685 27.8674 0.582689 28.3878C0.0618995 29.869 -0.098505 31.2706 0.102291 32.7126C0.542682 35.7157 2.54424 38.2372 5.30739 39.3592C6.34857 39.8 7.42975 40 8.55052 40C8.87092 40 9.27092 39.96 9.59171 39.9196C10.9133 39.7596 12.2745 39.3196 13.596 38.5588C15.2376 37.6376 16.7992 36.3169 18.5607 34.3949C20.3223 36.3169 21.9239 37.6376 23.5254 38.5588C24.8474 39.3196 26.2082 39.7596 27.5293 39.9196C27.8497 39.9604 28.2505 40 28.5709 40C29.6921 40 30.8129 39.8 31.8137 39.3592C34.6168 38.2372 36.5784 35.6757 37.0192 32.7126C37.3371 31.3114 37.1771 29.9106 36.6568 28.4286ZM18.5995 30.5106C16.4372 27.7878 15.0356 25.2255 14.5556 23.0639C14.3556 22.1428 14.3152 21.342 14.4356 20.6212C14.5152 19.9804 14.756 19.4196 15.0764 18.9392C15.8372 17.8588 17.1184 17.1777 18.5999 17.1777C20.0819 17.1777 21.4031 17.8184 22.1239 18.9392C22.4443 19.4196 22.6842 19.9808 22.765 20.6212C22.8846 21.3424 22.8446 22.1828 22.6446 23.0639C22.1627 25.1855 20.7611 27.7483 18.5995 30.5106ZM34.5744 32.3926C34.2944 34.4745 32.8928 36.2769 30.9313 37.0777C29.9705 37.4776 28.9289 37.598 27.8885 37.4776C26.8878 37.3572 25.8862 37.0369 24.8458 36.4369C23.4042 35.6353 21.9631 34.3949 20.2811 32.5525C22.9234 29.3098 24.525 26.3463 25.1258 23.7043C25.4062 22.4628 25.4466 21.342 25.3258 20.3004C25.1662 19.2996 24.8054 18.3784 24.245 17.5777C23.003 15.7753 20.9207 14.7349 18.5991 14.7349C16.2776 14.7349 14.1952 15.8161 12.954 17.5777C12.3936 18.3784 12.0329 19.2996 11.8729 20.3004C11.7129 21.342 11.7525 22.5028 12.0729 23.7043C12.6732 26.3463 14.3148 29.3494 16.9172 32.5926C15.2756 34.4345 13.794 35.6761 12.3524 36.4769C11.3113 37.0777 10.3109 37.3981 9.31011 37.5177C8.22934 37.6381 7.18776 37.4777 6.26697 37.1177C4.30541 36.3169 2.90384 34.5145 2.62385 32.4326C2.50385 31.4318 2.58345 30.431 2.98424 29.3098C3.10384 28.909 3.30463 28.509 3.50463 28.0287C3.78502 27.3879 4.10462 26.7067 4.42541 26.0263L4.46581 25.9467C7.22816 19.9804 10.1909 13.8945 13.274 7.96904L13.394 7.72825C13.7148 7.12826 14.0352 6.48747 14.3552 5.88669C14.6756 5.2459 15.0356 4.64511 15.4764 4.12432C16.3172 3.16434 17.4379 2.64315 18.6795 2.64315C19.9211 2.64315 21.0419 3.16434 21.8827 4.12432C22.3235 4.64631 22.6834 5.2471 23.0038 5.88669C23.3246 6.48747 23.645 7.12826 23.9646 7.72825L24.085 7.96904C27.1211 13.9191 30.0445 19.9261 32.8536 25.9867V26.0267C33.1744 26.6683 33.4544 27.3883 33.7748 28.0298C33.9748 28.5094 34.1752 28.9094 34.2952 29.3102C34.6148 30.3502 34.7348 31.3518 34.5744 32.3926Z" fill="#FF5A5F"/>
</g>
<defs>
<clipPath id="clip0_453_348">
<rect width="128.205" height="40" fill="white"/>
</clipPath>
</defs>
</svg>
