<svg width="82" height="40" viewBox="0 0 82 40" fill="none" xmlns="http://www.w3.org/2000/svg">
<g clip-path="url(#clip0_453_350)">
<mask id="mask0_453_350" style="mask-type:luminance" maskUnits="userSpaceOnUse" x="-161" y="-79" width="404" height="198">
<path d="M-160.905 118.504H242.871V-78.5012H-160.905V118.504Z" fill="white"/>
</mask>
<g mask="url(#mask0_453_350)">
<path d="M80.5253 22.3615C80.0018 21.9658 79.9156 21.9053 76.7689 20.8689C79.4943 20.1987 79.6114 20.1273 80.0946 19.8097C81.1889 19.0681 81.773 17.8379 81.6882 16.5055L81.6774 16.3601C81.4553 14.2215 78.7003 10.1864 76.8456 9.2806C75.6222 8.69647 74.2614 8.77856 73.1901 9.49862C72.6854 9.83241 72.6181 9.8782 70.5467 12.706C70.3448 9.40175 69.9559 3.57526 69.8603 3.03017L69.8401 2.90501L69.8092 2.78389C69.4552 1.50393 68.4511 0.542953 67.1214 0.209167C64.902 -0.344002 59.0325 1.3101 57.4577 2.93327C56.5331 3.89829 56.1778 5.19711 56.4968 6.41516L56.5613 6.65741L56.6704 6.88217C56.8211 7.19307 57.2182 7.85123 60.6247 13.1959L61.8804 15.1743C58.8306 13.9267 58.7094 13.9227 58.0782 13.9173C56.8763 13.8648 55.6717 14.5081 54.9463 15.6441L54.9328 15.6656C54.5586 16.2686 54.3271 17.0882 54.1831 17.9469C53.2006 16.6225 51.7214 15.5606 49.4792 15.1205C47.8896 14.8015 46.3984 14.994 44.9932 15.562C43.7065 14.741 41.938 14.6454 40.4589 15.4893C40.0501 15.7192 39.6885 16.0243 39.3929 16.3884V14.5741L39.2516 13.496L39.2085 13.3022C38.9111 12.1326 38.0282 11.146 36.8464 10.6615L36.8357 10.6561C35.5382 10.1326 34.0833 10.2577 32.8491 10.9966C31.5341 11.7732 30.8598 13.0626 30.8598 14.8257V18.5257C30.3979 17.8012 29.8115 17.1642 29.1276 16.6441C27.281 15.2443 24.8046 14.7719 21.9701 15.2807C20.3267 15.566 18.9525 16.2834 17.8637 17.3359L17.8112 17.2269C17.258 16.2363 16.3603 15.5552 15.2109 15.2537C13.2916 14.7275 10.8555 15.3803 9.85013 18.8123L9.46387 20.1246C9.02376 19.3171 7.88244 17.1111 7.83533 17.0452C6.80706 15.4866 4.74779 14.811 2.90658 15.5431C1.12729 16.2134 0.0976562 17.7787 0.0976562 19.6185C0.0976562 20.1986 0.198592 20.8029 0.409901 21.4167L0.462393 21.5661L5.17579 31.1665C3.47591 31.6147 2.2646 32.8825 2.0681 34.6214C1.98894 35.2539 2.06306 35.8961 2.28419 36.4939C2.50531 37.0917 2.86696 37.6275 3.33864 38.0562C4.61725 39.2366 6.60382 39.6269 8.93628 39.1491C11.4706 38.6511 12.9283 37.1235 13.9498 33.8839L15.5043 28.9996C16.0104 31.0561 16.931 32.3993 17.8045 33.2607C19.0602 34.503 21.3604 35.8772 25.168 35.363C27.9971 34.9673 29.9554 33.7008 31.0132 32.2122L31.0819 32.5716C31.3834 33.6335 32.203 34.577 33.304 35.079C33.8774 35.3422 34.5015 35.4764 35.1324 35.4722C35.7633 35.468 36.3856 35.3255 36.9555 35.0548C37.5652 34.7897 38.082 34.3711 38.4844 33.8475V35.3873C38.4844 37.9324 39.9568 39.0145 40.8344 39.4344C41.408 39.721 42.0373 39.8788 42.6783 39.8967C43.3192 39.9146 43.9564 39.7922 44.5451 39.538C45.6729 39.0495 46.5101 38.1195 46.8385 36.9902L46.8896 36.8166L47.0431 35.7668V35.3159C48.5734 35.472 50.171 35.223 51.5775 34.4936C52.1993 34.1705 52.743 33.7816 53.2289 33.3347H54.2626C54.8251 33.6308 55.4644 33.8152 56.1522 33.8152C56.8427 33.8152 57.4806 33.6308 58.0418 33.3347H61.0392C63.0244 34.4519 65.9262 35.2984 67.4794 35.0319C68.8172 34.795 69.8711 33.9337 70.3166 32.7264L70.3394 32.6658C70.5279 32.1167 70.5588 32.0144 70.5723 28.9121C72.2735 31.6604 72.3623 31.7331 72.8401 32.11C73.8671 32.9108 75.217 33.0871 76.4634 32.5851C78.4647 31.7816 81.5226 27.8946 81.8295 25.7613C81.8551 25.5755 81.8699 25.3871 81.8699 25.2027C81.8699 24.0856 81.3881 23.0506 80.5253 22.3615ZM49.4684 15.1178C49.4724 15.1205 49.4751 15.1205 49.4792 15.1205C49.4818 15.1232 49.4846 15.1232 49.4886 15.1232L49.4684 15.1178ZM76.466 32.5851H76.4634C76.4593 32.5851 76.4579 32.5891 76.4539 32.5904L76.466 32.5851Z" fill="white"/>
<path d="M49.4688 15.1172L49.4795 15.1199C49.4835 15.1226 49.4849 15.1226 49.4903 15.1226L49.4688 15.1172ZM76.4677 32.5845H76.4637C76.461 32.5845 76.4597 32.5885 76.4556 32.5898L76.4677 32.5845Z" stroke="white" stroke-width="5.95229" stroke-linecap="round" stroke-linejoin="round"/>
</g>
<path d="M56.7198 18.0516C56.234 18.8295 56.0307 21.2737 56.1987 22.8981C56.2567 23.4336 56.3523 23.8806 56.4965 24.1459C56.6903 24.5158 57.0157 24.7366 57.3872 24.7489C57.6228 24.7609 57.7725 24.7218 62.2514 23.2776C62.2514 23.2776 64.2421 22.6451 64.2528 22.641C64.7454 22.5131 65.082 22.0582 65.1142 21.4754C65.1465 20.8765 64.8356 20.3503 64.3295 20.1593L62.9244 19.5858C58.1088 17.5995 57.8946 17.524 57.6498 17.5213C57.2796 17.5038 56.9498 17.6937 56.7198 18.0516ZM67.4858 32.8458C67.565 32.6196 67.5732 32.4649 67.5853 27.7595C67.5853 27.7595 67.5973 25.6803 67.6017 25.6573C67.6312 25.1513 67.3028 24.6855 66.7615 24.477C66.2058 24.2614 65.6069 24.3934 65.2689 24.8133C65.2689 24.8133 64.2891 25.9762 64.2853 25.9775C60.9137 29.9412 60.7722 30.1218 60.6916 30.3587C60.6397 30.4959 60.6208 30.6434 60.6364 30.7893C60.658 30.9977 60.7506 31.2092 60.911 31.3975C61.6916 32.3302 65.4427 33.7097 66.6377 33.5054C67.0536 33.43 67.3579 33.1931 67.4858 32.8458ZM75.0901 31.2076C76.2235 30.7567 78.6918 27.6182 78.8639 26.4125C78.9232 25.9909 78.7928 25.6303 78.5019 25.3975C78.315 25.2549 78.1655 25.1997 73.6931 23.73C73.6931 23.73 71.7268 23.0811 71.7052 23.0705C71.2273 22.8847 70.6861 23.0557 70.3216 23.5065C69.9418 23.9683 69.8828 24.5751 70.1883 25.0366L70.9784 26.3221C73.6366 30.6398 73.8371 30.9439 74.0281 31.0947C74.3243 31.3248 74.7024 31.3663 75.0901 31.2076ZM72.782 20.0959C77.8694 18.8658 78.0644 18.8011 78.2663 18.6694C78.5745 18.4593 78.7267 18.1148 78.701 17.6883C78.701 17.6732 78.7024 17.6612 78.701 17.6465C78.5693 16.3986 76.3822 13.1484 75.3041 12.6208C74.9205 12.4391 74.5382 12.4514 74.2232 12.6612C74.0268 12.7929 73.88 12.9815 71.1587 16.7096C71.1587 16.7096 69.9271 18.3866 69.9123 18.4014C69.588 18.7945 69.5839 19.3612 69.8986 19.8467C70.226 20.3489 70.7831 20.594 71.2921 20.4527C71.2921 20.4527 71.2691 20.4877 71.2647 20.4956C71.5139 20.4 71.9661 20.2899 72.782 20.0959ZM67.6727 15.8954C67.5839 13.879 66.9795 4.90337 66.9082 4.48889C66.8044 4.10911 66.5099 3.84135 66.0858 3.73507C64.7899 3.41212 59.8247 4.80501 58.9055 5.75418C58.6121 6.06074 58.5017 6.44161 58.5892 6.77822C58.7331 7.07439 64.8826 16.75 64.8826 16.75C65.7924 18.2251 66.5342 17.9951 66.7763 17.9194C67.0186 17.8443 67.7563 17.6142 67.6727 15.8954Z" fill="#222222"/>
<path d="M57.126 17.0349C56.6413 17.8116 56.4366 20.257 56.605 21.8802C56.6642 22.4157 56.7612 22.8627 56.9025 23.1294C57.0965 23.4982 57.4219 23.7173 57.7932 23.731C58.0317 23.743 58.1798 23.7026 62.659 22.2624C62.659 22.2624 64.6494 21.6272 64.6576 21.6231C65.1543 21.4966 65.4882 21.0403 65.5202 20.4575C65.5527 19.86 65.2442 19.3324 64.7358 19.1414C64.7358 19.1414 63.332 18.5693 63.3292 18.5693C58.5161 16.584 58.2995 16.5062 58.0571 16.5034C57.6855 16.4884 57.356 16.6756 57.126 17.0349ZM67.8931 31.8266C67.9713 31.6003 67.9806 31.4457 67.9942 26.7403C67.9942 26.7403 68.0049 24.661 68.0062 24.6408C68.0385 24.1307 67.7087 23.6662 67.1691 23.4591C66.6131 23.2449 66.0142 23.3772 65.6778 23.7955C65.6778 23.7955 64.6953 24.961 64.6926 24.961C61.321 28.9219 61.1798 29.105 61.0975 29.3394C61.0468 29.4773 61.0284 29.625 61.0437 29.7711C61.0639 29.9815 61.1596 30.1886 61.3169 30.3823C62.0989 31.3113 65.8486 32.6905 67.0464 32.4861C67.4625 32.4107 67.765 32.1766 67.8931 31.8266ZM75.5002 30.1886C76.6308 29.7378 79.0966 26.6004 79.2701 25.393C79.3308 24.9731 79.1991 24.611 78.9094 24.3796C78.7196 24.237 78.5756 24.1818 74.0991 22.7121C74.0991 22.7121 72.1354 22.0632 72.11 22.051C71.6346 21.8668 71.0923 22.0378 70.7275 22.4873C70.348 22.949 70.2915 23.5586 70.5945 24.019L71.3844 25.3058C74.0412 29.6206 74.2444 29.926 74.4357 30.0755C74.7316 30.3083 75.1086 30.346 75.5002 30.1886ZM73.1865 19.0794C78.2739 17.8466 78.4707 17.7819 78.6712 17.6502C78.9794 17.4428 79.1343 17.0955 79.1073 16.6728C79.1073 16.6595 79.11 16.6447 79.1073 16.6299C78.9767 15.3808 76.7881 12.1319 75.7103 11.6043C75.3278 11.4212 74.9458 11.4333 74.6283 11.6458C74.4316 11.7737 74.2876 11.9677 71.5633 15.6931C71.5633 15.6931 70.3333 17.3687 70.3185 17.3849C69.9942 17.7794 69.9887 18.3447 70.3065 18.8291C70.6349 19.331 71.1893 19.5761 71.698 19.4348C71.698 19.4348 71.6778 19.4712 71.6726 19.4777C71.9229 19.3835 72.371 19.2734 73.1865 19.0794ZM68.0803 14.8789C67.9929 12.8625 67.3858 3.8855 67.3144 3.46965C67.2123 3.09261 66.9174 2.82348 66.4948 2.7172C65.1959 2.39562 60.2323 3.78577 59.3129 4.73467C59.017 5.04287 58.9079 5.42237 58.9967 5.75898C59.1421 6.05652 65.2915 15.7321 65.2915 15.7321C66.2 17.2059 66.9418 16.9772 67.1852 16.9004C67.4262 16.8264 68.1636 16.5977 68.0803 14.8789Z" fill="#BF2519"/>
<path d="M5.089 36.1581C5.72971 36.7516 6.94363 36.9199 8.41876 36.6199C9.80127 36.3466 10.6584 35.7289 11.4835 33.1057L15.5925 20.1954C15.8051 19.5101 15.7892 18.9153 15.5455 18.4741C15.3474 18.1186 15.0179 17.8776 14.5521 17.7539C13.8198 17.5533 12.9062 17.5735 12.3299 19.5413L10.1739 26.8647C10.1739 26.8647 5.78217 18.5683 5.77944 18.567C5.50211 18.0123 4.68928 17.6156 3.86142 17.944C2.78219 18.3544 2.42263 19.3249 2.85323 20.5752C2.85323 20.5752 8.19527 31.4461 8.20756 31.4756C8.20756 31.4756 8.35292 31.8633 8.35292 31.9265C8.35292 31.9265 8.40128 32.2215 8.40128 32.2322C8.39035 32.6508 8.25046 33.0032 8.00019 33.2387C7.75401 33.4704 7.41194 33.5915 7.01221 33.5754C7.01221 33.5754 6.17916 33.5562 6.11604 33.5562C5.26004 33.6614 4.72152 34.1527 4.63518 34.9117C4.57507 35.4005 4.73245 35.8297 5.089 36.1581ZM26.1378 23.9169H20.4176C20.2627 23.8041 20.1875 23.6142 20.3031 23.0435C20.3758 22.7435 20.4539 22.4743 20.6829 22.0973C20.7567 21.9844 20.8334 21.8686 20.9075 21.753C21.3261 21.2238 21.8927 20.8847 22.5375 20.7339C24.5484 20.2427 25.9506 21.2642 26.1782 23.0071C26.2872 23.7678 26.2156 23.9169 26.1378 23.9169ZM29.6533 22.9211C29.4689 21.0558 28.749 19.5995 27.5686 18.7071C26.3113 17.7528 24.532 17.4487 22.4258 17.8255C19.7851 18.2831 18.1996 20.17 17.8362 23.2899C17.3892 27.0194 18.0028 29.8297 19.6168 31.4191C20.8334 32.6213 22.6331 33.0989 24.8217 32.8027C27.9427 32.3639 29.3462 30.6508 29.3462 29.5672C29.3462 28.7705 28.8645 28.1431 28.1566 28.0478C27.7514 27.9669 27.4096 28.0478 26.6531 28.7246C25.5629 29.6748 24.2993 30.0571 23.1793 29.7732C22.326 29.5565 21.6599 28.9683 21.3583 28.162C21.3583 28.162 21.2239 27.6292 21.2318 27.6882C21.1403 27.2079 21.0987 26.7314 21.3946 26.5374L21.4739 26.4836H28.3301C28.9629 26.4836 29.2831 26.4016 29.4675 26.2022C29.8446 25.7839 29.8145 24.5888 29.6533 22.9211ZM35.8686 13.0555C35.3262 12.8348 34.7139 12.8941 34.1768 13.2143C33.6601 13.52 33.4445 13.9856 33.4445 14.8268V31.1743C33.4445 31.1743 33.5347 31.7584 33.5443 31.7838C33.6601 32.1918 33.9615 32.539 34.3801 32.7286C34.8445 32.9442 35.3801 32.9401 35.8593 32.7152C36.4555 32.4568 36.8068 31.8606 36.8068 31.1218V14.7432C36.8068 14.7432 36.703 13.952 36.703 13.9372C36.6074 13.5575 36.294 13.2293 35.8686 13.0555ZM48.8056 29.6601C46.5417 29.6601 46.1811 27.6505 46.1098 26.1339C46.1057 26.1298 46.08 25.2454 46.08 25.2454C46.08 25.2454 46.1057 24.5888 46.1057 24.5631C46.2524 21.9385 46.7947 20.9036 48.1797 20.6156C49.1097 20.4003 49.8204 20.5052 50.3535 20.9345C51.154 21.5793 51.5067 22.944 51.4745 25.2213C51.4515 27.8874 50.9873 29.6601 48.8056 29.6601ZM48.9737 17.6574C47.457 17.3476 46.1595 17.6074 44.9117 18.4525C44.9117 18.4525 44.7718 18.5656 44.718 18.5981L44.6062 18.6547L44.2647 18.808L44.1674 18.4244L44.0855 18.2858L44.057 18.1998L44.0478 18.1741C44.0478 18.1741 43.9644 18.0623 43.9521 18.0449C43.5942 17.4875 42.621 17.232 41.7437 17.7326C41.3142 17.9763 41.068 18.3194 41.068 19.3438V35.3882C41.068 36.2671 41.344 36.8136 41.9467 37.1016C42.4554 37.3573 43.0275 37.3775 43.5188 37.1663C43.936 36.9833 44.2428 36.66 44.3573 36.2671L44.4584 35.5794V32.8027L44.4286 32.356L44.4407 32.224L44.4581 32.1609L44.6237 31.6319L45.1259 31.9655C45.1259 31.9655 45.2524 32.0491 45.3062 32.1057L45.457 32.2051C45.4581 32.2065 45.6319 32.3076 45.6319 32.3076C45.6346 32.3076 45.7934 32.3855 45.7934 32.3855C47.1393 33.0207 48.9401 32.9467 50.3898 32.1997C52.2149 31.247 53.1166 29.5565 53.325 26.718C53.7611 21.0448 52.4556 18.3345 48.9737 17.6574ZM56.0075 30.9158H56.1947C56.3466 30.9158 56.4895 30.9076 56.4895 30.7368C56.4895 30.5833 56.3589 30.5674 56.2417 30.5674H56.0075V30.9158ZM55.854 30.43H56.2551C56.5176 30.43 56.6403 30.5256 56.6403 30.7434C56.6403 30.9401 56.5149 31.0221 56.3507 31.0396L56.6671 31.5229H56.5015L56.2026 31.053H56.0075V31.5229H55.854V30.43ZM56.2081 31.7759C56.6507 31.7759 57.0075 31.4273 57.0075 30.9655C57.0075 30.512 56.651 30.1623 56.2081 30.1623C55.7638 30.1623 55.4072 30.512 55.4072 30.9751C55.4063 31.0805 55.4264 31.1851 55.4663 31.2826C55.5062 31.3802 55.5651 31.4688 55.6397 31.5434C55.7143 31.6179 55.8029 31.6768 55.9005 31.7167C55.9981 31.7566 56.1026 31.7766 56.2081 31.7756V31.7759ZM56.2081 30.0262C56.725 30.0262 57.1597 30.4327 57.1597 30.9655C57.1597 31.5079 56.725 31.9131 56.2081 31.9131C55.6898 31.9131 55.2564 31.5079 55.2564 30.9751C55.2564 30.4327 55.6898 30.0262 56.2081 30.0262Z" fill="#222222"/>
</g>
<defs>
<clipPath id="clip0_453_350">
<rect width="81.9672" height="40" fill="white"/>
</clipPath>
</defs>
</svg>
